<?xml version="1.0" encoding="utf-8"?>
<!-- Generator: Adobe Illustrator 25.4.1, SVG Export Plug-In . SVG Version: 6.00 Build 0)  -->
<svg version="1.1" id="Capa_1" xmlns="http://www.w3.org/2000/svg" xmlns:xlink="http://www.w3.org/1999/xlink" x="0px" y="0px"
	 viewBox="0 0 258 75" style="enable-background:new 0 0 258 75;" xml:space="preserve">
<style type="text/css">
	.st0{fill:#164193;}
	.st1{fill:url(#SVGID_1_);}
	.st2{fill:url(#SVGID_00000119820292121785612470000002423306000635902103_);}
	.st3{fill:url(#SVGID_00000144299539196390278550000017071730994491035013_);}
	.st4{fill:url(#SVGID_00000111170648590507598450000005967072317549039004_);}
</style>
<g>
	<g>
		<g>
			<path class="st0" d="M36.3,39.2c0.8-0.3,1.4-0.8,2-1.4c0.7-0.8,1-1.8,1-3c0-1-0.3-2-0.8-2.7c-0.5-0.8-1.3-1.4-2.3-1.8
				c-1-0.4-2.2-0.6-3.7-0.6h-6.9c-0.9,0-1.6,0.2-2,0.7c-0.5,0.5-0.7,1.1-0.7,2V47c0,0.9,0.2,1.5,0.7,2s1.1,0.7,2,0.7h7.2
				c2.2,0,3.9-0.5,5.2-1.5s1.9-2.4,1.9-4.2c0-1.3-0.4-2.4-1.1-3.3C38.1,40,37.3,39.5,36.3,39.2z M27.8,33.4h3.7
				c0.9,0,1.6,0.2,2.1,0.5c0.4,0.3,0.7,0.8,0.7,1.5s-0.2,1.2-0.7,1.6c-0.4,0.3-1.1,0.5-2.1,0.5h-3.7C27.8,37.5,27.8,33.4,27.8,33.4z
				 M34.1,45.2c-0.4,0.4-1.2,0.6-2.1,0.6h-4.2v-4.4H32c1,0,1.7,0.2,2.1,0.5c0.4,0.4,0.7,0.9,0.7,1.6C34.8,44.3,34.6,44.9,34.1,45.2z
				"/>
			<path class="st0" d="M61.9,29.9c-0.4-0.4-1-0.6-1.7-0.6s-1.2,0.1-1.6,0.4c-0.4,0.3-0.8,0.7-1.1,1.3l-5.7,10l-5.6-10
				c-0.3-0.6-0.7-1-1.1-1.3c-0.4-0.3-0.9-0.4-1.6-0.4c-0.8,0-1.4,0.2-1.8,0.6c-0.4,0.4-0.7,1-0.7,1.8v15.8c0,0.8,0.2,1.3,0.6,1.8
				c0.4,0.4,1,0.6,1.7,0.6c0.8,0,1.4-0.2,1.8-0.6c0.4-0.4,0.6-1,0.6-1.8v-8.7l4,6.9c0.2,0.4,0.5,0.7,0.8,0.9
				c0.3,0.2,0.7,0.3,1.2,0.3s0.9-0.1,1.2-0.3c0.3-0.2,0.6-0.5,0.8-0.9l4-6.9v8.7c0,0.8,0.2,1.3,0.6,1.8c0.4,0.4,1,0.6,1.7,0.6
				c0.8,0,1.4-0.2,1.8-0.6c0.4-0.4,0.6-1,0.6-1.8V31.7C62.5,30.9,62.3,30.3,61.9,29.9z"/>
		</g>
		
			<linearGradient id="SVGID_1_" gradientUnits="userSpaceOnUse" x1="42.55" y1="7.3433" x2="42.55" y2="20.3785" gradientTransform="matrix(1 0 0 -1 0 72)">
			<stop  offset="0" style="stop-color:#006633"/>
			<stop  offset="1" style="stop-color:#39A935"/>
		</linearGradient>
		<path class="st1" d="M64.7,51.7c-0.7,0-1.5,0-2.5,0c-0.7,0-1.6,0-2.6,0c-0.5,0-0.9,0-1.3,0c-1.6,0-3.4,0-5.3,0
			c-3.5,0-6.5,0.4-9.1,1.1c-10.6-1-20.5-1.2-24.3-1.2c0.3,0.5,0.9,1.5,1,1.5c3.8,5.4,9.3,9.2,15.5,10.8h0.1c0.1,0,0.3,0.1,0.4,0.1
			c1.9,0.4,3.9,0.6,5.9,0.6c8.9,0,16.8-4.3,21.7-11c0.1-0.2,0.3-0.4,0.4-0.5l0,0c0.3-0.5,0.6-0.9,0.9-1.4
			C65.3,51.7,65,51.7,64.7,51.7z M40.5,53.9c-0.8,0.3-1.5,0.6-2.1,0.9l0,0c-1.6-0.5-3.2-1-4.8-1.3C35.7,53.5,38.1,53.7,40.5,53.9z
			 M36.5,55.6c-0.3,0.2-0.6,0.3-0.9,0.5c-0.6,0.3-1.1,0.6-1.6,1c-1.8-1.4-3.6-2.5-5.4-3.2C31.1,54.2,33.8,54.8,36.5,55.6z
			 M22.4,53.4c3,0.5,6.9,1.7,10.5,4.5c-1.3,1-2.2,1.8-2.7,2.3C27.2,58.5,24.5,56.2,22.4,53.4z M31.5,60.8c0.8-0.8,2.4-2.2,4.9-3.5
			c3-1.7,7.8-3.7,14.4-4.1c-3.3,1.1-6,2.6-8,4c-3.8,2.7-5.8,5.3-5.9,5.5C35,62.2,33.2,61.6,31.5,60.8z M42.6,63.3
			c-1.4,0-2.9-0.1-4.2-0.4c0.8-0.9,2.5-2.8,5.2-4.7c3.1-2.2,8-4.7,14.3-5.1c-3.1,1.1-5.7,2.8-7.6,4.3c-3.3,2.6-5.5,5.3-5.9,5.8
			C43.7,63.3,43.2,63.3,42.6,63.3z M46.3,63c2-2.4,8.2-8.6,16.6-9.8C58.8,58.6,52.8,62.1,46.3,63z"/>
		<path class="st0" d="M73.1,36.6c-0.6,0-1.1,0.5-1.1,1.1C72,54,58.7,67.3,42.4,67.3C26.2,67.2,13,54,13,37.7S26.3,8.1,42.6,8.1
			c0.6,0,1.1-0.5,1.1-1.1s-0.5-1.1-1.1-1.1C25,6,10.8,20.2,10.8,37.7S25,69.4,42.5,69.4s31.7-14.2,31.7-31.7
			C74.2,37.1,73.7,36.6,73.1,36.6z"/>
		<g>
			
				<linearGradient id="SVGID_00000110447477758563605440000004777572951687616910_" gradientUnits="userSpaceOnUse" x1="-205.8102" y1="158.0039" x2="-194.2588" y2="169.2387" gradientTransform="matrix(1 0 0 -1 256.3237 186.7037)">
				<stop  offset="0" style="stop-color:#164193"/>
				<stop  offset="1" style="stop-color:#00B4EC"/>
			</linearGradient>
			<path style="fill:url(#SVGID_00000110447477758563605440000004777572951687616910_);" d="M61.4,21.9c0.6,0.6,1.2,1.2,1.8,1.8
				c0.4-0.4,0.8-0.8,1.1-1.2c2,2,3.9,3.9,5.8,5.8c-1,1-2,2-3,3c-1.9-1.9-3.8-3.8-5.7-5.7c0.4-0.4,0.8-0.7,1.1-1.1
				c-0.6-0.6-1.2-1.2-1.8-1.8c-0.6,0.6-1.3,1.3-1.9,1.9c-0.4,0.4-0.9,0.9-1.3,1.3c-0.3,0.2-0.5,0.2-0.7,0c-1-1-2-2-3.1-3.1
				c-0.3-0.3-0.3-0.5,0-0.8c1-1,2-2,3-3c0.1-0.1,0.1-0.1,0.2-0.2c-0.6-0.6-1.2-1.2-1.8-1.8c-0.3,0.4-0.7,0.8-1.1,1.1
				c-2-2-3.9-3.9-5.8-5.8c1-1,2-2,3-3c1.9,1.9,3.8,3.8,5.7,5.7c-0.4,0.4-0.8,0.8-1.1,1.1c0.6,0.6,1.2,1.2,1.8,1.8
				c0.1-0.1,0.1-0.1,0.2-0.2c1-1,2-2,3-3c0.3-0.3,0.5-0.3,0.8,0c1,1,2,2,3,3c0.3,0.3,0.3,0.5,0,0.9c-1,1-2,2-3,3
				C61.6,21.8,61.5,21.9,61.4,21.9z"/>
			
				<linearGradient id="SVGID_00000021828179729422729610000002912641841394891709_" gradientUnits="userSpaceOnUse" x1="-205.6748" y1="157.8648" x2="-194.1235" y2="169.0996" gradientTransform="matrix(1 0 0 -1 256.3237 186.7037)">
				<stop  offset="0" style="stop-color:#164193"/>
				<stop  offset="1" style="stop-color:#00B4EC"/>
			</linearGradient>
			<path style="fill:url(#SVGID_00000021828179729422729610000002912641841394891709_);" d="M50.6,24.5c0-0.4,0.1-0.6,0.4-0.7
				c0.3,0,0.5,0.2,0.5,0.6c0.1,1.9,1.7,3.5,3.6,3.6h0.1c0.3,0,0.5,0.2,0.5,0.5s-0.2,0.5-0.5,0.4c-1,0-1.9-0.3-2.7-0.9
				C51.3,27.2,50.7,26,50.6,24.5z"/>
			
				<linearGradient id="SVGID_00000066513984410776275880000007120860894799107969_" gradientUnits="userSpaceOnUse" x1="-205.6477" y1="157.837" x2="-194.0964" y2="169.0718" gradientTransform="matrix(1 0 0 -1 256.3237 186.7037)">
				<stop  offset="0" style="stop-color:#164193"/>
				<stop  offset="1" style="stop-color:#00B4EC"/>
			</linearGradient>
			<path style="fill:url(#SVGID_00000066513984410776275880000007120860894799107969_);" d="M55.5,27.3c-1.7,0-3.2-1.5-3.2-3.2
				c0-0.4,0.4-0.6,0.7-0.5c0.2,0.1,0.2,0.3,0.2,0.5c0.1,1.2,0.8,2,1.9,2.3c0.2,0,0.3,0,0.5,0.1c0.3,0,0.5,0.2,0.5,0.5
				C56,27.1,55.8,27.3,55.5,27.3z"/>
		</g>
	</g>
	<g>
		<path class="st0" d="M97.8,30.5c-0.6,0-1.1,0.1-1.4,0.3s-0.7,0.6-1,1.1l-5,9l-5-9c-0.3-0.5-0.6-0.9-1-1.1
			c-0.3-0.2-0.8-0.3-1.4-0.3c-0.7,0-1.3,0.2-1.7,0.5c-0.4,0.4-0.6,0.9-0.6,1.6v14.2c0,0.7,0.2,1.2,0.5,1.6c0.4,0.4,0.9,0.6,1.6,0.6
			s1.2-0.2,1.6-0.6s0.5-0.9,0.5-1.6V39l3.5,6.2c0.2,0.4,0.5,0.7,0.7,0.8c0.3,0.2,0.6,0.3,1,0.3s0.8-0.1,1.1-0.3
			c0.3-0.2,0.5-0.5,0.8-0.8l3.6-6.2v7.8c0,0.7,0.2,1.2,0.5,1.6c0.4,0.4,0.9,0.6,1.6,0.6s1.2-0.2,1.6-0.6s0.5-0.9,0.5-1.6V32.6
			c0-0.7-0.2-1.2-0.5-1.6C99,30.7,98.5,30.5,97.8,30.5z"/>
		<path class="st0" d="M116.7,31.6c-1.4-0.8-3-1.1-4.8-1.1c-1.4,0-2.6,0.2-3.7,0.7c-1.1,0.4-2.1,1.1-2.9,1.9
			c-0.8,0.8-1.4,1.8-1.9,2.9c-0.4,1.1-0.7,2.4-0.7,3.8c0,1.9,0.4,3.5,1.1,4.9c0.8,1.4,1.8,2.5,3.2,3.3c1.4,0.8,3,1.2,4.8,1.2
			c1.4,0,2.6-0.2,3.7-0.7c1.1-0.4,2.1-1.1,2.9-1.9s1.4-1.8,1.9-2.9c0.4-1.1,0.7-2.4,0.7-3.8c0-1.9-0.4-3.5-1.1-4.9
			C119.2,33.4,118.1,32.3,116.7,31.6z M115.7,42.6c-0.3,0.8-0.8,1.4-1.5,1.8c-0.6,0.4-1.4,0.6-2.3,0.6c-1.3,0-2.4-0.5-3.1-1.4
			s-1.1-2.3-1.1-3.9c0-1.1,0.2-2.1,0.5-2.9c0.3-0.8,0.8-1.4,1.5-1.8c0.6-0.4,1.4-0.6,2.3-0.6c1.3,0,2.4,0.5,3.1,1.4s1.1,2.2,1.1,3.9
			C116.2,40.8,116,41.8,115.7,42.6z"/>
		<path class="st0" d="M137.7,30.5c-0.7,0-1.3,0.2-1.6,0.6c-0.4,0.4-0.5,0.9-0.5,1.6V41l-7.4-9.2c-0.4-0.5-0.7-0.8-1-1
			s-0.7-0.3-1.3-0.3c-0.6,0-1.1,0.2-1.5,0.6c-0.4,0.4-0.6,1-0.6,1.7v13.9c0,0.7,0.2,1.3,0.6,1.7c0.4,0.4,0.9,0.6,1.6,0.6
			s1.3-0.2,1.6-0.6c0.4-0.4,0.5-0.9,0.5-1.7v-8.3l7.4,9.2c0.4,0.5,0.7,0.8,1.1,1c0.3,0.2,0.8,0.3,1.4,0.3c0.6,0,1-0.2,1.4-0.6
			c0.3-0.4,0.5-0.9,0.5-1.5V32.7c0-0.7-0.2-1.3-0.5-1.6C139,30.7,138.5,30.5,137.7,30.5z"/>
		<path class="st0" d="M145.6,30.5c-0.7,0-1.3,0.2-1.7,0.6c-0.4,0.4-0.6,1-0.6,1.8v13.7c0,0.8,0.2,1.4,0.6,1.8
			c0.4,0.4,1,0.6,1.7,0.6c0.8,0,1.4-0.2,1.8-0.6c0.4-0.4,0.6-1,0.6-1.8V32.9c0-0.8-0.2-1.4-0.6-1.8
			C146.9,30.7,146.3,30.5,145.6,30.5z"/>
		<path class="st0" d="M164.1,30.7h-12.7c-0.6,0-1.1,0.2-1.4,0.5c-0.3,0.3-0.5,0.8-0.5,1.4c0,0.6,0.2,1.1,0.5,1.4
			c0.3,0.3,0.8,0.5,1.4,0.5h4v12c0,0.7,0.2,1.3,0.6,1.7c0.4,0.4,1,0.6,1.7,0.6c0.8,0,1.4-0.2,1.8-0.6c0.4-0.4,0.6-1,0.6-1.7v-12h4
			c0.6,0,1.1-0.2,1.4-0.5c0.3-0.3,0.5-0.8,0.5-1.4c0-0.6-0.2-1.1-0.5-1.4C165.2,30.9,164.7,30.7,164.1,30.7z"/>
		<path class="st0" d="M180,31.6c-1.4-0.8-3-1.1-4.8-1.1c-1.4,0-2.6,0.2-3.7,0.7c-1.1,0.4-2.1,1.1-2.9,1.9c-0.8,0.8-1.4,1.8-1.9,2.9
			c-0.4,1.1-0.7,2.4-0.7,3.8c0,1.9,0.4,3.5,1.1,4.9c0.8,1.4,1.8,2.5,3.2,3.3s3,1.2,4.8,1.2c1.4,0,2.6-0.2,3.7-0.7
			c1.1-0.4,2.1-1.1,2.9-1.9c0.8-0.8,1.4-1.8,1.9-2.9c0.4-1.1,0.7-2.4,0.7-3.8c0-1.9-0.4-3.5-1.1-4.9C182.5,33.4,181.4,32.3,180,31.6
			z M179,42.6c-0.3,0.8-0.8,1.4-1.5,1.8c-0.6,0.4-1.4,0.6-2.3,0.6c-1.3,0-2.4-0.5-3.1-1.4c-0.7-0.9-1.1-2.3-1.1-3.9
			c0-1.1,0.2-2.1,0.5-2.9c0.3-0.8,0.8-1.4,1.5-1.8c0.6-0.4,1.4-0.6,2.3-0.6c1.3,0,2.4,0.5,3.1,1.4c0.7,0.9,1.1,2.2,1.1,3.9
			C179.5,40.8,179.3,41.8,179,42.6z"/>
		<path class="st0" d="M200.6,43.6c-0.4-0.7-0.8-1.2-1.4-1.6c-0.3-0.2-0.6-0.3-0.9-0.4c0.3-0.1,0.7-0.2,1-0.4
			c0.9-0.5,1.7-1.1,2.2-1.9c0.5-0.8,0.8-1.8,0.8-3c0-1.8-0.6-3.2-1.7-4.1c-1.1-1-2.7-1.5-4.7-1.5h-6.3c-0.7,0-1.3,0.2-1.7,0.6
			c-0.4,0.4-0.6,1-0.6,1.8v13.5c0,0.7,0.2,1.3,0.6,1.7c0.4,0.4,1,0.6,1.7,0.6c0.8,0,1.4-0.2,1.8-0.6c0.4-0.4,0.6-1,0.6-1.7V42h1.4
			c0.4,0,0.8,0.1,1.1,0.2s0.6,0.4,0.8,0.8l2.3,4.3c0.3,0.6,0.7,1,1.1,1.3c0.4,0.3,1,0.4,1.6,0.4c0.7,0,1.2-0.1,1.5-0.4
			s0.5-0.7,0.5-1.1c0-0.5-0.1-0.9-0.4-1.4L200.6,43.6z M195,38.7h-3.1v-4.4h3.1c0.9,0,1.6,0.2,2.1,0.5c0.5,0.4,0.7,0.9,0.7,1.6
			c0,0.7-0.2,1.3-0.7,1.7C196.5,38.5,195.9,38.7,195,38.7z"/>
		<path class="st0" d="M207.5,30.5c-0.7,0-1.3,0.2-1.7,0.6c-0.4,0.4-0.6,1-0.6,1.8v13.7c0,0.8,0.2,1.4,0.6,1.8
			c0.4,0.4,1,0.6,1.7,0.6c0.8,0,1.4-0.2,1.8-0.6c0.4-0.4,0.6-1,0.6-1.8V32.9c0-0.8-0.2-1.4-0.6-1.8
			C208.9,30.7,208.3,30.5,207.5,30.5z"/>
		<path class="st0" d="M227,30.5c-0.7,0-1.3,0.2-1.6,0.6c-0.4,0.4-0.5,0.9-0.5,1.6V41l-7.4-9.2c-0.4-0.5-0.7-0.8-1-1
			s-0.7-0.3-1.3-0.3s-1.1,0.2-1.5,0.6c-0.4,0.4-0.6,1-0.6,1.7v13.9c0,0.7,0.2,1.3,0.6,1.7c0.4,0.4,0.9,0.6,1.6,0.6
			c0.7,0,1.3-0.2,1.6-0.6c0.4-0.4,0.5-0.9,0.5-1.7v-8.3l7.4,9.2c0.4,0.5,0.7,0.8,1.1,1c0.3,0.2,0.8,0.3,1.4,0.3c0.6,0,1-0.2,1.4-0.6
			c0.3-0.4,0.5-0.9,0.5-1.5V32.7c0-0.7-0.2-1.3-0.5-1.6C228.3,30.7,227.7,30.5,227,30.5z"/>
		<path class="st0" d="M247.9,39c-0.3-0.3-0.8-0.5-1.4-0.5h-3.8c-0.6,0-1,0.1-1.3,0.4c-0.3,0.3-0.5,0.7-0.5,1.2s0.2,0.9,0.5,1.2
			s0.8,0.4,1.3,0.4h1.8v2.8c-0.3,0.1-0.6,0.1-1,0.2c-0.6,0.1-1.2,0.2-1.7,0.2c-1.7,0-2.9-0.4-3.8-1.3c-0.9-0.9-1.3-2.2-1.3-3.9
			c0-1.2,0.2-2.1,0.6-2.9c0.4-0.8,0.9-1.4,1.7-1.8c0.8-0.4,1.7-0.6,2.8-0.6c0.7,0,1.3,0.1,1.9,0.2c0.6,0.1,1.1,0.3,1.7,0.5
			c0.5,0.2,0.9,0.3,1.3,0.2c0.4-0.1,0.7-0.3,0.9-0.7c0.2-0.3,0.4-0.7,0.4-1.1c0.1-0.4,0-0.8-0.2-1.1c-0.2-0.4-0.5-0.7-0.9-0.9
			c-0.9-0.4-1.7-0.7-2.6-0.9c-0.9-0.2-1.8-0.2-2.6-0.2c-1.6,0-3,0.2-4.2,0.7c-1.2,0.4-2.3,1.1-3.1,1.9c-0.9,0.8-1.5,1.8-2,3
			c-0.5,1.1-0.7,2.4-0.7,3.9c0,1.8,0.4,3.4,1.1,4.8c0.7,1.4,1.8,2.4,3.3,3.2c1.4,0.8,3.2,1.1,5.2,1.1c0.9,0,1.9-0.1,2.8-0.2
			c0.9-0.2,1.8-0.4,2.6-0.6c0.5-0.2,0.8-0.4,1-0.8s0.3-0.8,0.3-1.3v-5.6C248.4,39.8,248.2,39.3,247.9,39z"/>
	</g>
</g>
</svg>
