<?xml version="1.0" encoding="utf-8"?>
<!-- Generator: Adobe Illustrator 25.4.1, SVG Export Plug-In . SVG Version: 6.00 Build 0)  -->
<svg version="1.1" id="Capa_1" xmlns="http://www.w3.org/2000/svg" xmlns:xlink="http://www.w3.org/1999/xlink" x="0px" y="0px"
	 viewBox="0 0 200 200" style="enable-background:new 0 0 200 200;" xml:space="preserve">
<style type="text/css">
	.st0{fill:#FFFFFF;}
	.st1{fill:#39A935;}
	.st2{fill:#00B4EC;}
</style>
<g>
	<g>
		<g>
			<path class="st0" d="M81.4,105.1c2.4-1,4.3-2.4,5.9-4.3c2-2.5,3-5.5,3-9.1c0-3.1-0.8-5.9-2.4-8.2c-1.6-2.3-3.9-4.2-7-5.4
				c-3.1-1.3-6.8-1.9-11.1-1.9H49c-2.7,0-4.7,0.7-6.1,2.1c-1.4,1.4-2.1,3.4-2.1,6v44.1c0,2.6,0.7,4.6,2.1,6c1.4,1.4,3.4,2.1,6.1,2.1
				h21.8c6.6,0,11.7-1.5,15.5-4.6c3.8-3.1,5.7-7.2,5.7-12.6c0-4-1.1-7.3-3.4-9.9C86.8,107.4,84.4,106,81.4,105.1z M55.8,87.6h11.2
				c2.9,0,5,0.5,6.3,1.5c1.3,1,2,2.6,2,4.7c0,2.1-0.7,3.7-2,4.7c-1.3,1-3.4,1.5-6.3,1.5H55.8V87.6z M75,123.2
				c-1.3,1.1-3.5,1.7-6.4,1.7H55.8v-13.3h12.8c2.9,0,5,0.5,6.4,1.6c1.3,1.1,2,2.7,2,5C77,120.5,76.3,122.1,75,123.2z"/>
			<path class="st0" d="M158.5,77.1c-1.2-1.2-3-1.8-5.3-1.8c-2,0-3.6,0.4-4.8,1.2c-1.2,0.8-2.3,2-3.3,3.8l-16.8,30.4l-16.9-30.4
				c-1-1.8-2-3-3.2-3.8c-1.2-0.8-2.8-1.2-4.8-1.2c-2.4,0-4.3,0.6-5.6,1.8c-1.3,1.2-2,3-2,5.4V130c0,2.3,0.6,4.1,1.8,5.3
				c1.2,1.3,3,1.9,5.3,1.9c2.3,0,4.1-0.6,5.3-1.9c1.2-1.3,1.8-3,1.8-5.3v-26.1l11.9,20.7c0.7,1.3,1.6,2.2,2.5,2.8
				c0.9,0.6,2.1,0.9,3.5,0.9c1.5,0,2.7-0.3,3.6-0.9c0.9-0.6,1.7-1.6,2.5-2.8l12-20.9V130c0,2.3,0.6,4.1,1.8,5.3
				c1.2,1.3,3,1.9,5.3,1.9c2.3,0,4.1-0.6,5.3-1.9c1.2-1.3,1.8-3,1.8-5.3V82.5C160.4,80.2,159.7,78.4,158.5,77.1z"/>
		</g>
		<path class="st1" d="M167.2,142.8c-2.1,0-4.7,0-7.5,0c-2.3,0-4.8,0-7.7-0.1c-1.4,0-2.7,0-4,0.1c-4.9,0-10.3,0-15.9-0.1
			c-10.4,0-19.6,1.3-27.5,3.3c-32-3.1-61.9-3.5-73.4-3.6c0.9,1.5,2.8,4.5,2.9,4.5c11.3,16.3,28,27.7,46.8,32.4
			c0.1,0,0.3,0.1,0.4,0.1c0.4,0.1,0.9,0.2,1.3,0.3c5.7,1.3,11.6,1.9,17.7,1.9c26.8,0,50.7-13.1,65.5-33.2c0.4-0.5,0.8-1.1,1.2-1.6
			c0,0,0,0,0,0c1-1.4,1.9-2.8,2.8-4.2C168.8,142.8,168,142.8,167.2,142.8z M94,149.3c-2.3,0.8-4.4,1.7-6.4,2.6c0,0,0,0,0,0
			c-4.8-1.6-9.7-2.9-14.4-4C79.8,148.2,86.8,148.7,94,149.3z M82.2,154.5c-1,0.5-1.9,1-2.8,1.5c-1.7,1-3.3,1.9-4.7,2.9
			c-5.3-4.2-10.8-7.4-16.2-9.7C65.9,150.3,74,152,82.2,154.5z M39.6,147.9c8.9,1.6,20.9,5.2,31.6,13.5c-3.9,2.9-6.6,5.4-8,6.8
			C54.1,163.1,46.1,156.3,39.6,147.9z M67,170.1c2.5-2.4,7.4-6.5,14.6-10.7c9.1-5.2,23.6-11.2,43.3-12.4c-10,3.3-18.1,8-24.1,12.2
			c-11.3,8-17.3,15.9-17.8,16.5C77.5,174.5,72.1,172.6,67,170.1z M100.4,177.8c-4.3,0-8.6-0.4-12.8-1.1c2.3-2.7,7.6-8.5,15.7-14.2
			c9.3-6.5,24.1-14.2,43.2-15.5c-9.4,3.4-17.2,8.5-23.1,13c-10,7.7-16.5,15.9-17.9,17.6C103.9,177.7,102.2,177.8,100.4,177.8z
			 M111.5,176.9c6.2-7.1,24.7-25.9,50-29.5C149.3,163.5,131.3,174.1,111.5,176.9z"/>
		<path class="st0" d="M192.5,97.3c-1.8,0-3.2,1.4-3.2,3.2c0,49.1-40,89.1-89.1,89.1c-49.1,0-89.1-40-89.1-89.1s40-89.1,89.1-89.1
			c1.8,0,3.2-1.4,3.2-3.2S102,5,100.2,5C47.6,5,4.7,47.8,4.7,100.5S47.6,196,100.2,196c52.7,0,95.5-42.8,95.5-95.5
			C195.7,98.7,194.3,97.3,192.5,97.3z"/>
		<g>
			<path class="st2" d="M157.3,52.9c1.9,1.9,3.6,3.6,5.4,5.4c1.1-1.2,2.3-2.4,3.4-3.5c5.9,5.9,11.7,11.6,17.4,17.4
				c-2.9,2.9-5.9,6-8.9,8.9c-5.7-5.7-11.4-11.4-17.3-17.3c1.1-1.1,2.3-2.2,3.4-3.3c-1.8-1.8-3.6-3.6-5.4-5.4
				c-1.9,1.9-3.9,3.9-5.8,5.8c-1.3,1.3-2.6,2.6-3.9,3.9c-0.8,0.7-1.5,0.7-2.2,0c-3.1-3.1-6.1-6.1-9.2-9.2c-0.8-0.8-0.8-1.5,0-2.3
				c3-3,6-6,9-9c0.2-0.2,0.4-0.4,0.6-0.5c-1.9-1.8-3.7-3.6-5.5-5.4c-1.1,1.1-2.2,2.3-3.3,3.4c-5.9-5.9-11.6-11.6-17.3-17.3
				c2.9-2.9,6-6,9-9c5.7,5.7,11.4,11.4,17.2,17.2c-1.1,1.1-2.3,2.3-3.5,3.4c1.8,1.8,3.6,3.6,5.4,5.4c0.2-0.2,0.4-0.3,0.6-0.5
				c3-3,6-6,9-9c0.9-0.9,1.6-0.9,2.6,0c3,3,6,6,8.9,8.9c0.9,0.9,0.9,1.6,0,2.6c-3,3-6,6-9,9C157.7,52.6,157.4,52.8,157.3,52.9z"/>
			<path class="st2" d="M124.6,60.7c0-1.3,0.4-2,1.3-2c0.9-0.1,1.4,0.6,1.5,1.9c0.2,5.8,5,10.6,10.9,10.8c0.1,0,0.2,0,0.3,0
				c0.9,0,1.6,0.6,1.5,1.4c0,0.8-0.6,1.4-1.6,1.4c-3-0.1-5.8-1-8.2-2.8C126.8,68.8,124.9,65.2,124.6,60.7z"/>
			<path class="st2" d="M139.3,69.2c-5.2-0.1-9.7-4.6-9.7-9.8c0-1.2,1.1-2,2.1-1.4c0.5,0.3,0.7,0.8,0.7,1.4c0.2,3.5,2.4,6.1,5.7,6.8
				c0.5,0.1,0.9,0.1,1.4,0.2c1,0.1,1.5,0.6,1.4,1.5C140.9,68.7,140.3,69.2,139.3,69.2z"/>
		</g>
	</g>
</g>
</svg>
