<?xml version="1.0" encoding="utf-8"?>
<!-- Generator: Adobe Illustrator 25.4.1, SVG Export Plug-In . SVG Version: 6.00 Build 0)  -->
<svg version="1.1" id="Capa_1" xmlns="http://www.w3.org/2000/svg" xmlns:xlink="http://www.w3.org/1999/xlink" x="0px" y="0px"
	 viewBox="0 0 583 165" style="enable-background:new 0 0 583 165;" xml:space="preserve">
<style type="text/css">
	.st0{opacity:0.55;}
	.st1{fill:#FFFFFF;}
</style>
<g class="st0">
	<g>
		<g>
			<path class="st1" d="M67.8,87c1.9-0.8,3.4-1.9,4.7-3.4c1.6-2,2.4-4.4,2.4-7.2c0-2.5-0.6-4.7-1.9-6.5c-1.3-1.9-3.1-3.3-5.5-4.3
				c-2.4-1-5.4-1.5-8.8-1.5H42.1c-2.1,0-3.7,0.6-4.9,1.7c-1.1,1.1-1.7,2.7-1.7,4.8v35c0,2.1,0.6,3.7,1.7,4.8
				c1.1,1.1,2.7,1.7,4.9,1.7h17.2c5.2,0,9.3-1.2,12.3-3.6c3-2.4,4.5-5.7,4.5-9.9c0-3.2-0.9-5.8-2.7-7.8C72.1,88.9,70.2,87.7,67.8,87
				z M47.5,73.2h8.9c2.3,0,3.9,0.4,5,1.2c1.1,0.8,1.6,2,1.6,3.7c0,1.7-0.5,2.9-1.6,3.7c-1.1,0.8-2.7,1.2-5,1.2h-8.9V73.2z
				 M62.7,101.4c-1.1,0.9-2.7,1.3-5.1,1.3H47.5V92.2h10.1c2.3,0,4,0.4,5.1,1.3c1.1,0.9,1.6,2.2,1.6,3.9
				C64.3,99.2,63.8,100.5,62.7,101.4z"/>
			<path class="st1" d="M128.9,64.9c-1-1-2.4-1.5-4.2-1.5c-1.6,0-2.8,0.3-3.8,0.9c-0.9,0.6-1.8,1.6-2.6,3L105,91.4L91.6,67.4
				C90.8,66,90,65,89,64.3c-0.9-0.6-2.2-0.9-3.8-0.9c-1.9,0-3.4,0.5-4.4,1.5c-1,1-1.6,2.4-1.6,4.2v37.7c0,1.8,0.5,3.2,1.5,4.2
				c1,1,2.4,1.5,4.2,1.5c1.9,0,3.3-0.5,4.2-1.5c1-1,1.4-2.4,1.4-4.2V86.1l9.4,16.4c0.6,1,1.2,1.7,2,2.2c0.7,0.5,1.7,0.7,2.8,0.7
				c1.2,0,2.1-0.2,2.8-0.7c0.7-0.5,1.4-1.2,2-2.2l9.5-16.5v20.9c0,1.8,0.5,3.2,1.5,4.2c1,1,2.4,1.5,4.2,1.5c1.9,0,3.3-0.5,4.2-1.5
				c1-1,1.4-2.4,1.4-4.2V69.1C130.4,67.3,129.9,65.9,128.9,64.9z"/>
		</g>
		<path class="st1" d="M135.8,116.9c-1.7,0-3.7,0-5.9,0c-1.8,0-3.8,0-6.1-0.1c-1.1,0-2.2,0-3.2,0.1c-3.9,0-8.2,0-12.6-0.1
			c-8.2,0-15.5,1.1-21.8,2.6c-25.4-2.5-49.1-2.8-58.2-2.8c0.7,1.2,2.2,3.6,2.3,3.6c9,12.9,22.2,22,37.1,25.7c0.1,0,0.2,0.1,0.3,0.1
			c0.4,0.1,0.7,0.2,1.1,0.2c4.5,1,9.2,1.5,14,1.5c21.3,0,40.2-10.4,51.9-26.3c0.3-0.4,0.6-0.9,0.9-1.3c0,0,0,0,0,0
			c0.8-1.1,1.5-2.2,2.2-3.3C137.1,116.9,136.4,116.9,135.8,116.9z M77.8,122c-1.8,0.7-3.5,1.4-5.1,2.1c0,0,0,0,0,0
			c-3.8-1.3-7.7-2.3-11.4-3.2C66.5,121.2,72.1,121.6,77.8,122z M68.4,126.2c-0.8,0.4-1.5,0.8-2.2,1.2c-1.4,0.8-2.6,1.5-3.7,2.3
			c-4.2-3.4-8.6-5.9-12.9-7.7C55.5,122.9,61.9,124.2,68.4,126.2z M34.7,120.9c7.1,1.3,16.5,4.2,25,10.7c-3.1,2.3-5.2,4.2-6.3,5.4
			C46.2,133,39.8,127.6,34.7,120.9z M56.4,138.6c2-1.9,5.8-5.2,11.6-8.4c7.2-4.1,18.7-8.9,34.3-9.8c-7.9,2.6-14.4,6.3-19.1,9.6
			c-9,6.3-13.7,12.6-14.1,13.1C64.7,142,60.4,140.5,56.4,138.6z M82.8,144.6c-3.4,0-6.8-0.3-10.1-0.9c1.8-2.1,6.1-6.7,12.5-11.2
			c7.4-5.2,19.1-11.3,34.3-12.3c-7.4,2.7-13.6,6.7-18.3,10.3c-7.9,6.1-13.1,12.6-14.2,13.9C85.6,144.6,84.2,144.6,82.8,144.6z
			 M91.6,144c4.9-5.6,19.6-20.6,39.6-23.4C121.6,133.3,107.3,141.7,91.6,144z"/>
		<path class="st1" d="M155.8,80.9c-1.4,0-2.5,1.1-2.5,2.5c0,38.9-31.7,70.6-70.6,70.6c-38.9,0-70.6-31.7-70.6-70.6
			s31.7-70.6,70.6-70.6c1.4,0,2.5-1.1,2.5-2.5s-1.1-2.5-2.5-2.5C41,7.7,7,41.7,7,83.4s34,75.7,75.7,75.7c41.7,0,75.7-34,75.7-75.7
			C158.4,82,157.2,80.9,155.8,80.9z"/>
		<g>
			<path class="st1" d="M127.9,45.7c1.5,1.5,2.9,2.9,4.3,4.3c0.9-0.9,1.8-1.9,2.7-2.8c4.7,4.7,9.2,9.2,13.8,13.8
				c-2.3,2.3-4.7,4.7-7.1,7.1c-4.5-4.5-9.1-9.1-13.7-13.7c0.9-0.8,1.8-1.8,2.7-2.6c-1.4-1.5-2.9-2.9-4.3-4.3
				c-1.5,1.5-3.1,3.1-4.6,4.6c-1,1-2,2.1-3.1,3.1c-0.6,0.6-1.2,0.6-1.8,0c-2.4-2.4-4.9-4.9-7.3-7.3c-0.6-0.6-0.6-1.2,0-1.9
				c2.4-2.4,4.8-4.8,7.2-7.2c0.2-0.2,0.3-0.3,0.5-0.4c-1.5-1.4-2.9-2.8-4.3-4.3c-0.8,0.9-1.7,1.8-2.6,2.7
				c-4.7-4.7-9.2-9.2-13.7-13.7c2.3-2.3,4.7-4.7,7.1-7.1c4.5,4.5,9.1,9.1,13.7,13.7c-0.9,0.9-1.8,1.8-2.7,2.7
				c1.5,1.5,2.9,2.9,4.3,4.3c0.1-0.1,0.3-0.3,0.4-0.4c2.4-2.4,4.8-4.8,7.2-7.2c0.7-0.7,1.3-0.7,2,0c2.4,2.4,4.7,4.7,7.1,7.1
				c0.7,0.7,0.7,1.3,0,2c-2.4,2.4-4.8,4.8-7.2,7.2C128.2,45.5,128,45.6,127.9,45.7z"/>
			<path class="st1" d="M102,51.9c0-1.1,0.3-1.6,1-1.6c0.7,0,1.1,0.5,1.2,1.5c0.1,4.6,4,8.4,8.7,8.6c0.1,0,0.2,0,0.2,0
				c0.8,0,1.2,0.5,1.2,1.1c0,0.7-0.5,1.1-1.3,1.1c-2.4,0-4.6-0.8-6.5-2.2C103.7,58.2,102.3,55.4,102,51.9z"/>
			<path class="st1" d="M113.7,58.6c-4.1-0.1-7.7-3.7-7.7-7.7c0-1,0.8-1.6,1.6-1.1c0.4,0.2,0.5,0.7,0.6,1.1c0.2,2.8,1.9,4.8,4.5,5.4
				c0.4,0.1,0.7,0.1,1.1,0.1c0.8,0.1,1.2,0.5,1.1,1.2C114.9,58.2,114.4,58.6,113.7,58.6z"/>
		</g>
	</g>
	<g>
		<path class="st1" d="M214.9,66.2c-1.4,0-2.6,0.3-3.4,0.8c-0.8,0.5-1.6,1.5-2.3,2.7l-12,21.6l-12-21.6c-0.7-1.3-1.5-2.2-2.3-2.7
			c-0.8-0.5-2-0.8-3.4-0.8c-1.7,0-3,0.4-4,1.3c-0.9,0.9-1.4,2.1-1.4,3.8v33.8c0,1.6,0.4,2.9,1.3,3.8c0.9,0.9,2.1,1.3,3.7,1.3
			c1.7,0,2.9-0.4,3.8-1.3c0.9-0.9,1.3-2.2,1.3-3.8V86.5l8.5,14.7c0.5,0.9,1.1,1.6,1.8,2c0.6,0.4,1.5,0.7,2.5,0.7
			c1.1,0,1.9-0.2,2.5-0.7c0.6-0.4,1.2-1.1,1.8-2l8.5-14.8v18.7c0,1.6,0.4,2.9,1.3,3.8c0.9,0.9,2.1,1.3,3.7,1.3
			c1.7,0,2.9-0.4,3.8-1.3c0.9-0.9,1.3-2.2,1.3-3.8V71.3c0-1.7-0.4-2.9-1.3-3.8C217.8,66.6,216.5,66.2,214.9,66.2z"/>
		<path class="st1" d="M260,68.8c-3.3-1.8-7.1-2.7-11.4-2.7c-3.3,0-6.2,0.5-8.9,1.6c-2.7,1-5,2.5-6.9,4.5c-1.9,2-3.4,4.3-4.4,7
			c-1,2.7-1.6,5.8-1.6,9.1c0,4.4,0.9,8.3,2.7,11.6c1.8,3.3,4.4,5.9,7.6,7.8c3.3,1.8,7.1,2.8,11.5,2.8c3.3,0,6.2-0.5,8.9-1.6
			c2.7-1,5-2.5,6.9-4.5c1.9-2,3.4-4.3,4.4-7c1-2.7,1.6-5.7,1.6-9.1c0-4.5-0.9-8.4-2.7-11.7C265.8,73.2,263.3,70.6,260,68.8z
			 M257.6,95.1c-0.8,1.9-2,3.4-3.5,4.4c-1.5,1-3.3,1.5-5.5,1.5c-3.2,0-5.7-1.1-7.5-3.4c-1.8-2.3-2.7-5.4-2.7-9.4
			c0-2.7,0.4-5,1.2-6.9c0.8-1.9,2-3.3,3.5-4.3c1.5-1,3.3-1.5,5.5-1.5c3.2,0,5.7,1.1,7.5,3.4c1.8,2.2,2.7,5.4,2.7,9.4
			C258.8,90.9,258.4,93.2,257.6,95.1z"/>
		<path class="st1" d="M310.2,66.2c-1.7,0-3,0.4-3.9,1.3c-0.9,0.9-1.3,2.2-1.3,3.9v19.9l-17.6-22c-0.9-1.1-1.7-2-2.4-2.4
			c-0.7-0.5-1.7-0.7-3-0.7c-1.5,0-2.6,0.5-3.5,1.4c-0.9,1-1.3,2.3-1.3,4.1v33.2c0,1.7,0.4,3.1,1.3,4c0.9,0.9,2.2,1.3,3.9,1.3
			c1.7,0,3-0.4,3.9-1.3c0.9-0.9,1.3-2.2,1.3-4V85l17.6,22.1c0.9,1.1,1.7,1.9,2.5,2.4c0.8,0.5,1.9,0.8,3.3,0.8c1.4,0,2.5-0.5,3.3-1.4
			c0.8-0.9,1.2-2.1,1.2-3.7V71.4c0-1.7-0.4-3-1.3-3.9C313.2,66.6,311.9,66.2,310.2,66.2z"/>
		<path class="st1" d="M328.9,66.2c-1.8,0-3.2,0.5-4.1,1.5c-1,1-1.5,2.4-1.5,4.3v32.6c0,1.8,0.5,3.2,1.5,4.2c1,1,2.4,1.5,4.1,1.5
			c1.9,0,3.3-0.5,4.2-1.5c0.9-1,1.4-2.4,1.4-4.2V71.9c0-1.9-0.5-3.3-1.4-4.3C332.1,66.7,330.7,66.2,328.9,66.2z"/>
		<path class="st1" d="M373.2,66.7h-30.4c-1.5,0-2.7,0.4-3.4,1.2c-0.8,0.8-1.2,1.9-1.2,3.4c0,1.5,0.4,2.6,1.2,3.4
			c0.8,0.8,1.9,1.2,3.4,1.2h9.6v28.7c0,1.8,0.5,3.2,1.5,4.2c1,1,2.4,1.5,4.1,1.5c1.9,0,3.3-0.5,4.2-1.5c0.9-1,1.4-2.4,1.4-4.2V75.9
			h9.6c1.5,0,2.7-0.4,3.4-1.2c0.8-0.8,1.2-1.9,1.2-3.4c0-1.5-0.4-2.6-1.2-3.4C375.8,67.1,374.7,66.7,373.2,66.7z"/>
		<path class="st1" d="M411.2,68.8c-3.3-1.8-7.1-2.7-11.4-2.7c-3.3,0-6.2,0.5-8.9,1.6c-2.7,1-5,2.5-6.9,4.5c-1.9,2-3.4,4.3-4.4,7
			c-1,2.7-1.6,5.8-1.6,9.1c0,4.4,0.9,8.3,2.7,11.6c1.8,3.3,4.4,5.9,7.6,7.8c3.3,1.8,7.1,2.8,11.5,2.8c3.3,0,6.2-0.5,8.9-1.6
			c2.7-1,5-2.5,6.9-4.5c1.9-2,3.4-4.3,4.4-7c1-2.7,1.6-5.7,1.6-9.1c0-4.5-0.9-8.4-2.7-11.7C417,73.2,414.5,70.6,411.2,68.8z
			 M408.7,95.1c-0.8,1.9-2,3.4-3.5,4.4c-1.5,1-3.3,1.5-5.5,1.5c-3.2,0-5.7-1.1-7.5-3.4c-1.8-2.3-2.7-5.4-2.7-9.4
			c0-2.7,0.4-5,1.2-6.9c0.8-1.9,2-3.3,3.5-4.3c1.5-1,3.3-1.5,5.5-1.5c3.2,0,5.7,1.1,7.5,3.4c1.8,2.2,2.7,5.4,2.7,9.4
			C409.9,90.9,409.5,93.2,408.7,95.1z"/>
		<path class="st1" d="M460.3,97.5c-0.9-1.7-2-3-3.4-3.8c-0.6-0.4-1.3-0.7-2.1-0.9c0.8-0.2,1.6-0.5,2.3-0.9c2.3-1.1,4-2.6,5.2-4.6
			c1.2-2,1.8-4.4,1.8-7.1c0-4.2-1.3-7.5-4-9.9c-2.7-2.4-6.4-3.6-11.3-3.6h-15c-1.8,0-3.2,0.5-4.2,1.5c-1,1-1.5,2.4-1.5,4.2v32.2
			c0,1.8,0.5,3.2,1.5,4.2c1,1,2.4,1.5,4.1,1.5c1.9,0,3.3-0.5,4.2-1.5c0.9-1,1.4-2.4,1.4-4.2V93.7h3.4c1,0,1.8,0.2,2.6,0.5
			c0.8,0.3,1.4,1,1.9,1.9l5.5,10.2c0.8,1.4,1.7,2.4,2.7,3c1,0.6,2.3,1,3.9,1c1.6,0,2.8-0.4,3.6-1.1c0.8-0.7,1.3-1.6,1.3-2.7
			c0-1.1-0.3-2.3-0.9-3.4L460.3,97.5z M446.9,85.7h-7.4V75.3h7.4c2.2,0,3.8,0.4,4.9,1.3c1.1,0.9,1.7,2.2,1.7,3.9
			c0,1.8-0.6,3.1-1.7,4C450.7,85.3,449,85.7,446.9,85.7z"/>
		<path class="st1" d="M476.9,66.2c-1.8,0-3.2,0.5-4.1,1.5c-1,1-1.5,2.4-1.5,4.3v32.6c0,1.8,0.5,3.2,1.5,4.2c1,1,2.4,1.5,4.1,1.5
			c1.9,0,3.3-0.5,4.2-1.5c0.9-1,1.4-2.4,1.4-4.2V71.9c0-1.9-0.5-3.3-1.4-4.3C480.1,66.7,478.7,66.2,476.9,66.2z"/>
		<path class="st1" d="M523.4,66.2c-1.7,0-3,0.4-3.9,1.3c-0.9,0.9-1.3,2.2-1.3,3.9v19.9l-17.6-22c-0.9-1.1-1.7-2-2.4-2.4
			s-1.7-0.7-3-0.7c-1.5,0-2.6,0.5-3.5,1.4c-0.9,1-1.3,2.3-1.3,4.1v33.2c0,1.7,0.4,3.1,1.3,4c0.9,0.9,2.2,1.3,3.9,1.3s3-0.4,3.9-1.3
			c0.9-0.9,1.3-2.2,1.3-4V85l17.6,22.1c0.9,1.1,1.7,1.9,2.5,2.4c0.8,0.5,1.9,0.8,3.3,0.8c1.4,0,2.5-0.5,3.3-1.4
			c0.8-0.9,1.2-2.1,1.2-3.7V71.4c0-1.7-0.4-3-1.3-3.9C526.4,66.6,525.1,66.2,523.4,66.2z"/>
		<path class="st1" d="M573.4,86.6c-0.8-0.8-1.8-1.1-3.3-1.1h-9c-1.4,0-2.4,0.3-3.2,1c-0.8,0.7-1.1,1.6-1.1,2.9
			c0,1.3,0.4,2.2,1.1,2.9c0.8,0.7,1.8,1,3.2,1h4.3v6.8c-0.8,0.2-1.5,0.3-2.3,0.5c-1.4,0.2-2.8,0.4-4,0.4c-4,0-7-1.1-9-3.2
			c-2-2.1-3-5.2-3-9.4c0-2.8,0.4-5.1,1.3-7c0.9-1.9,2.2-3.4,4.1-4.3c1.8-1,4.1-1.5,6.8-1.5c1.6,0,3.1,0.2,4.5,0.5
			c1.4,0.3,2.7,0.7,4,1.3c1.2,0.5,2.2,0.7,3.2,0.4c0.9-0.3,1.7-0.8,2.2-1.6c0.5-0.8,0.9-1.7,1-2.6c0.1-1,0-1.9-0.4-2.7
			c-0.4-0.9-1.1-1.6-2.2-2c-2-1.1-4.1-1.8-6.2-2.2c-2.1-0.4-4.2-0.6-6.2-0.6c-3.7,0-7.1,0.5-10,1.6c-2.9,1-5.4,2.5-7.5,4.5
			c-2,2-3.6,4.3-4.7,7.1c-1.1,2.7-1.6,5.8-1.6,9.2c0,4.4,0.9,8.2,2.7,11.5c1.8,3.3,4.4,5.9,7.8,7.7c3.4,1.8,7.6,2.7,12.5,2.7
			c2.2,0,4.5-0.2,6.7-0.5c2.2-0.4,4.3-0.9,6.2-1.5c1.1-0.4,1.9-1,2.4-1.8c0.5-0.9,0.8-1.9,0.8-3.1V89.9
			C574.5,88.5,574.1,87.4,573.4,86.6z"/>
	</g>
</g>
</svg>
