<?xml version="1.0" encoding="utf-8"?>
<!-- Generator: Adobe Illustrator 25.4.1, SVG Export Plug-In . SVG Version: 6.00 Build 0)  -->
<svg version="1.1" id="Capa_1" xmlns="http://www.w3.org/2000/svg" xmlns:xlink="http://www.w3.org/1999/xlink" x="0px" y="0px"
	 viewBox="0 0 400 400" style="enable-background:new 0 0 400 400;" xml:space="preserve">
<style type="text/css">
	.st0{fill:#54E548;}
</style>
<g id="XMLID_00000131342878110610521560000014709229593796576403_">
	<g>
		<path class="st0" d="M392.6,150.1c0,5.3,0,10.6,0,15.8c-3.2,8.9-9.5,12.3-18.9,12.1c-13.3-0.4-26.6-0.1-39.9-0.1
			c-1.2,0-2.4,0-4.4,0c2.6,3.5,4.7,6.4,6.8,9.3c5.7,7.8,11.5,15.5,17.3,23.3c2.5,3.3,3.7,7,3.7,11.2c-0.1,16.7,0,33.4,0,50.1
			c0,11.1-7.9,19.3-18.3,19.2c-10.3-0.1-17.8-8.2-17.8-19.3c0-11.1,0.1-22.1-0.1-33.1c0-1.6-0.6-3.8-1.7-4.6
			c-9.7-7-19.7-13.8-29.8-20.9c-4.7,5.3-9.3,10.4-13.8,15.6c-9.8,11.5-22.3,17.1-37.4,17c-5.9,0-11.7,0-17.8,0c0,5.5,0,10.6,0,16.1
			c1.3,0.1,2.6,0.2,3.9,0.2c5.3,0.1,10.6-0.3,15.8,0.3c3.6,0.4,7.4,1.7,10.4,3.7c2.8,1.9,5.4,2.8,8.6,2.6c2.7-0.1,5.5-0.1,8.3,0.1
			c8.8,0.7,14.8,6.6,14.9,15.3c0.2,17.2,0.2,34.4,0,51.6c-0.1,8.7-6.3,14.6-15.1,15.2c-1.3,0.1-2.5,0.1-3.8,0
			c-5.2-0.1-10.2-0.2-14.7,3.7c-2.5,2.1-6.8,2.8-10.3,2.8c-25.5,0.2-51,0.1-76.4,0.1c-5.2,0-9.7-1.8-13.9-4.9
			c-1.3-1-3.1-1.5-4.7-1.6c-3.4-0.3-6.8,0-10.2-0.1c-9.1-0.5-15.2-6.6-15.3-15.7c-0.1-16.8-0.1-33.6,0-50.5
			c0.1-9.3,6.2-15.4,15.5-16c1.5-0.1,3-0.1,4.5,0c4.8,0.2,9-0.3,13.3-3.4c3.3-2.3,8.2-2.7,12.5-3.1c5.1-0.5,10.2-0.1,15.6-0.1
			c0-4.5,0-8.6,0-12.6c0-1.1,0-2.2,0-3.8c-6.7,0-13,0-19.4,0c-13.6-0.1-25.2-5-34.4-15.1c-4.2-4.6-8.3-9.4-12.5-14.1
			c-0.9-1-1.8-2-3-3.3c-8.4,5.8-16.5,11.9-25.1,17.3c-4.9,3.1-6.9,6.6-6.5,12.5c0.5,9.8,0.2,19.6,0.1,29.4
			c-0.1,10.7-7.8,18.7-18,18.7c-10.1,0-18-8.1-18.1-18.7c0-4.3-0.1-8.5,0-12.8c0.1-4.1,2.3-6.4,5.9-6.3c3.4,0.1,5.4,2.4,5.4,6.3
			c0.1,4.1,0,8.3,0,12.4c0.1,4.7,2.9,7.8,6.9,7.7c3.9-0.1,6.5-3.1,6.6-7.7c0.1-11,0.2-22.1,0-33.1c-0.1-6.6,2.3-11.5,7.9-15.2
			c8.2-5.4,16.1-11.1,24.1-16.7c1-0.7,2-1.5,3.3-2.5c-6.9-7.8-13.6-15.3-20.5-23.2c-3.2,4.3-6.2,8.3-9.2,12.3
			c-3.4,4.5-6.4,9.4-10.2,13.5c-6.8,7.5-10.4,15.8-9,26.2c0.6,4.3-2.1,6.9-5.6,6.9c-3.3-0.1-5.5-2.6-5.6-6.7c0-0.4,0-0.7,0-1.1
			c0.1-19.4-1.6-14.5,9.9-30.2c5.8-7.8,11.6-15.7,17.8-24c-1.8-0.1-2.9-0.2-4.1-0.2c-14.1,0-28.1,0-42.2,0
			c-10.7,0-16.8-6.2-16.8-16.9c0-2.3,0-4.5,0-6.8c0.1-9.3,6.2-15.6,15.5-15.8c5.9-0.1,11.8,0,17.7,0c1.1,0,2.2-0.1,3.8-0.2
			c0-4.9,0-9.6,0-14.3c0-4,0-8,0-12c0-10.2,3.5-14.5,13.7-16.2c0-7.8,0-15.6,0-23.8c-4.2,0-8.3,0-12.5,0c-7.5,0-15.1,0-22.6,0
			c-5,0-7.8-2-7.8-5.6c-0.1-3.7,2.6-5.7,7.6-5.7c10.3,0,20.6,0,30.9,0c1.4,0,2.7,0,4.3,0c0.8-4.5-1-11,6.5-10.5
			c6.1,0.4,4.9,5.8,5.3,10.5c1.4,0,2.7,0,4,0c10.8,0,21.6,0,32.4,0c4.7,0,7.4,2.1,7.3,5.7c0,3.5-2.7,5.6-7.4,5.6
			c-10.7,0-21.3,0-32,0c-1.4,0-2.7,0-4.2,0c0,8.1,0,15.9,0,23.8c1.4,0.3,2.9,0.6,4.3,1c5.7,1.7,9.2,6.5,9.3,12.7
			c0.1,9.5,0,19,0,29.1c3.1,0,5.9,0.1,8.7,0c4.4-0.3,8.5,0.4,12.2,2.8c2.2,1.4,3.9,1.1,6-0.4c10.6-7.7,21.3-15.1,33.5-20
			c48.1-19.5,93.8-15.1,137.3,13.3c3.5,2.3,6.8,4.8,10.2,7c0.9,0.6,2.6,1,3.3,0.6c5.7-4,12.2-3.3,18.5-3.3c1.3,0,2.7,0,4.4,0
			c0-8.9,0-17.4,0-25.9c0-10.9,3-14.6,13.6-17c0.1-0.5,0.2-1.1,0.2-1.7c0-7.2,0-14.3,0-22c-1.5,0-2.9,0-4.2,0c-10.7,0-21.3,0-32,0
			c-4.9,0-7.7-2.1-7.6-5.8c0.1-3.5,2.7-5.5,7.5-5.5c10.7,0,21.3,0,32,0c1.3,0,2.7,0,4.1,0c0.6-4.6-0.8-10.5,6-10.5s5.3,5.9,5.9,10.5
			c2.1,0,4.1,0,6.1,0c10,0,20.1,0,30.1,0c4.1,0,6.6,2.1,6.7,5.5c0.1,3.5-2.6,5.8-6.9,5.8c-11.9,0-23.8,0-36,0c0,8.1,0,15.9,0,23.8
			c10.6,2.2,13.6,6,13.6,16.8c0,8.5,0,17,0,26c5.8,0,11.3,0.3,16.8-0.1C382.5,137.7,389.2,141.1,392.6,150.1z M370.7,166.6
			c10.7,0,10.7,0,10.6-10.7c0-5.3-0.8-6.1-6.2-6.1c-22.7,0-45.4,0-68.1,0.1c-2.2,0-4.5,0.6-6.4,1.6c-15.2,7.3-30.7,14.4-45.5,22.4
			c-9.4,5.1-19.2,4-29,3.9c-3.1,0-4.9-2.4-5-5.6c-0.1-3,2.3-5.4,5.5-5.5c4.6-0.1,9.3,0,13.9-0.1c1.6,0,3.3-0.2,4.7-0.9
			c11.9-5.7,23.6-11.5,35.5-17.3c-42.8-35-111.1-39.8-161.7,0.1c6.3,3.1,12.7,5.7,18.6,9.2c11.9,7.1,24.4,10.2,38.3,9
			c8.6-0.8,17.3-0.2,26-0.1c3.8,0,6.2,2.3,6.2,5.6s-2.3,5.5-6.1,5.7c-0.9,0.1-1.8,0-2.6,0c-13.1,0-26.1,0.2-39.1-0.1
			c-4.4-0.1-9-1.2-12.9-3c-16.2-7.6-32.2-15.7-48.4-23.5c-1.9-0.9-4.3-1.5-6.4-1.5c-21.2-0.1-42.4-0.1-63.6-0.1
			c-10.6,0-10.6,0-10.5,10.4c0,5.5,0.9,6.4,6.6,6.4c17.9,0,35.9,0.1,53.8-0.1c3.9,0,6.5,1.3,9,4.2c9.9,11.5,20.1,22.7,30.1,34.2
			c1.7,2,3.5,2.8,6.1,2.8c50.6-0.1,101.1-0.1,151.7,0c2.5,0,4.2-0.7,5.8-2.6c10.1-11.5,20.3-22.9,30.3-34.5c2.5-3,5.3-4.1,9.1-4.1
			C337.5,166.7,354.1,166.6,370.7,166.6z M345.9,271.2c0-16.3,0.1-32.6-0.1-48.9c0-1.8-0.8-3.9-1.8-5.5c-3.8-5.6-8-10.9-12-16.4
			c-4.7-6.3-9.4-12.6-14.3-19.2c-7,7.9-13.7,15.5-20.6,23.3c9.4,6.6,18.3,13,27.5,19.1c5.4,3.6,7.9,8.3,7.8,14.8
			c-0.2,10.9-0.1,21.8-0.1,32.7c0,5.3,2.7,8.6,6.9,8.4C343.4,279.5,345.8,276.4,345.9,271.2z M345,115.6c0-9.7,0.9-8.3-8-8.3
			c-9.5,0-8.3-1.6-8.4,8.6c0,0.5,0.1,0.9,0.3,1.6c5.3,0,10.5,0,15.9,0C344.9,116.5,345,116,345,115.6z M344.8,138.1
			c0-3.1,0-5.9,0-8.8c-5.5,0-10.7,0-16,0c0,3.1,0,5.9,0,8.8C334.3,138.1,339.5,138.1,344.8,138.1z M271.1,334.9
			c0.1-16.8,0-33.5,0-50.3c0-2.4-1.1-4.2-3.7-4.4c-2.6-0.2-5.2-0.1-7.8-0.1c0,19.9,0,39.3,0,59.3c2.6,0,4.9,0,7.1,0
			C269.6,339.4,271.1,337.7,271.1,334.9z M268,219.2c-45.5,0-91,0-136.9,0c7.8,10.4,17.1,15,29.8,15.1c25.8,0,51.7,0,77.5,0
			c2.6,0,5.3-0.2,7.9-0.6C255.1,232.3,265,225.7,268,219.2z M248.1,334.7c0-16.7,0-33.4,0-50.1c0-7.8-3.4-11.3-11.2-11.3
			c-24.5,0-48.9,0-73.4,0c-7.8,0-11.3,3.5-11.3,11.2c0,16.8,0,33.6,0,50.4c0,7.6,3.5,11.1,11,11.1c12.3,0,24.6,0,36.9,0
			c12.2,0,24.3,0,36.5,0C244.7,346.1,248.1,342.8,248.1,334.7z M208.6,261.7c0-5.5,0-10.7,0-15.9c-6,0-11.7,0-17.8,0
			c0,5.5,0,10.6,0,15.9C196.9,261.7,202.8,261.7,208.6,261.7z M140.8,339.5c0-20,0-39.5,0-59.4c-2.4,0-4.8-0.1-7.1,0
			c-2.9,0.1-4.4,1.7-4.4,4.6c0,16.8,0,33.6,0,50.3c0,2.8,1.5,4.5,4.4,4.5C136,339.5,138.4,339.5,140.8,339.5z M71.7,115.3
			c-0.1-9.3,1-8-7.9-8c-9.2-0.1-9.2,0-8.4,9.3c0,0.2,0.2,0.4,0.4,0.9c5.4,0,10.5,0,15.8,0C71.6,116.5,71.7,115.9,71.7,115.3z
			 M71.5,138.2c0-3.1,0-6,0-8.9c-5.4,0-10.6,0-15.9,0c0,3,0,5.9,0,8.9C61,138.2,66.1,138.2,71.5,138.2z"/>
		<path class="st0" d="M236.8,291c0.1,12.5,0.1,25.1,0,37.6c0,3.8-2.4,6-6.2,6.1c-3.1,0.1-6.3,0.1-9.4,0c-3.4-0.1-5.5-2.2-5.6-5.3
			c-0.1-3.2,2-5.6,5.5-5.9c1.3-0.1,2.7,0,4.2,0c0-9.2,0-18.1,0-27.2c-16.7,0-33.3,0-50.1,0c0,8.9,0,17.7,0,27.1c6.2,0,12.4,0,18.6,0
			c1.5,0,3-0.1,4.5,0.3c2.9,0.7,4.5,2.9,4.2,5.8c-0.2,2.9-2,5-5.1,5.1c-9.4,0.1-18.8,0.2-28.2,0c-3.5-0.1-5.5-2.4-5.6-5.9
			c-0.1-12.7-0.1-25.3,0-38c0-4.1,2.6-6,7.5-6c16.7,0,33.4,0,50,0c3.1,0,6.3-0.1,9.4,0.1C234.4,285,236.7,287.2,236.8,291z"/>
		<path class="st0" d="M208.9,309.5c0.2,3.2-1.9,5.5-5.5,5.9c-1,0.1-2,0-3,0c0,0.1,0,0.1,0,0.1c-1.1-0.1-2.3-0.1-3.3-0.3
			c-3-0.5-4.7-2.4-4.7-5.4c0-3.2,1.8-5.2,4.9-5.6c2-0.3,4-0.2,6-0.1C206.5,304.4,208.6,306.1,208.9,309.5z"/>
	</g>
</g>
</svg>
