<?xml version="1.0" encoding="utf-8"?>
<!-- Generator: Adobe Illustrator 25.4.1, SVG Export Plug-In . SVG Version: 6.00 Build 0)  -->
<svg version="1.1" id="Capa_1" xmlns="http://www.w3.org/2000/svg" xmlns:xlink="http://www.w3.org/1999/xlink" x="0px" y="0px"
	 viewBox="0 0 400 400" style="enable-background:new 0 0 400 400;" xml:space="preserve">
<style type="text/css">
	.st0{fill:#38A032;}
	.st1{fill:#164193;}
	.st2{fill:#FFFFFF;}
	.st3{fill:#54E548;}
</style>
<g>
	<g id="XMLID_00000114038658312738774020000008046294859278236332_">
		<g>
			<path class="st0" d="M382.4,331.9c0.1-0.1,0.3-0.4,0.5-0.6c-0.1,0.3-0.3,0.5-0.5,0.7c-0.2,0.2-0.3,0.4-0.5,0.5
				C382.1,332.3,382.2,332.1,382.4,331.9z"/>
			<path class="st1" d="M380.8,333.6c0.2-0.2,0.3-0.3,0.5-0.4C381.1,333.4,381,333.5,380.8,333.6z"/>
			<path class="st0" d="M380.4,333.9c-0.2,0.1-0.4,0.2-0.6,0.4c-0.9,0.5-1.8,0.8-2.8,0.9c1-0.2,2-0.5,2.8-1c0.2-0.1,0.4-0.2,0.6-0.4
				c0.2-0.1,0.3-0.2,0.4-0.3c0.2-0.1,0.3-0.2,0.5-0.4c0.2-0.2,0.4-0.4,0.6-0.6c-0.2,0.3-0.4,0.5-0.6,0.7c-0.2,0.1-0.3,0.2-0.5,0.4
				C380.7,333.7,380.5,333.8,380.4,333.9z"/>
			<path class="st2" d="M377.8,315.8c-2.5-4.2-4.9-8.4-7.5-12.6c0,0,0,0,0,0h0c0,0,0,0,0,0c0,0,0,0,0,0c0,0,0,0,0-0.1
				C372.9,307.4,375.4,311.6,377.8,315.8z"/>
			<path class="st2" d="M370.4,303.2C370.4,303.2,370.4,303.2,370.4,303.2C370.4,303.2,370.4,303.2,370.4,303.2
				C370.4,303.2,370.4,303.2,370.4,303.2z"/>
			<path class="st2" d="M370.4,303.2C370.4,303.2,370.4,303.2,370.4,303.2L370.4,303.2C370.3,303.2,370.3,303.1,370.4,303.2
				C370.4,303.2,370.4,303.2,370.4,303.2z"/>
			<path class="st3" d="M365.5,362.2c0.3,0,0.7,0,1,0c0.5,0,0.9,0,1.4,0s1.1,0,1.6,0c2,0,4-0.1,6.1,0c4.3,0.3,7.3,3.3,7.3,7.1
				c0.1,3.7-2.5,7-6.6,7.3c-5.3,0.3-10.6,0.3-16,0c-0.2,0-0.4,0-0.6,0c-4.1-0.3-6.7-3.6-6.6-7.3c0.2-3.9,3.1-6.8,7.3-7.1
				c1.7-0.1,3.2,0,4.8,0C365.3,362.2,365.4,362.2,365.5,362.2z"/>
			<path class="st1" d="M366.5,362.2c-0.3,0-0.7,0-1,0c-0.1,0-0.2,0-0.3,0C365.6,362.2,366.1,362.2,366.5,362.2z"/>
			<path class="st0" d="M365.1,255.9c0.5,0.9,1,1.8,1.3,2.6c0.1,0.2,0.2,0.4,0.2,0.6c0.1,0.3,0.2,0.6,0.3,0.8
				c-0.1-0.2-0.2-0.5-0.3-0.7c-0.1-0.2-0.2-0.4-0.2-0.6C366.1,257.8,365.6,256.9,365.1,255.9z"/>
			<path class="st2" d="M365.1,255.9c0.6,0.9,1,1.7,1.3,2.6C366.1,257.7,365.6,256.8,365.1,255.9z"/>
			<path class="st2" d="M369.2,282.3c-2.5-4.4-5.1-8.8-7.6-13.2l0.1-0.1C364.2,273.4,366.7,277.8,369.2,282.3
				c1.7,2.6,3.3,5.3,4.8,8.1c2.7,4.7,2.6,7.7-0.7,10.6c3.1-2.9,3.1-5.9,0.6-10.5C372.3,287.8,370.7,285,369.2,282.3z"/>
			<path class="st1" d="M360.4,362.2c1.6-0.1,3.2-0.1,4.8,0C363.6,362.2,362.1,362.1,360.4,362.2z"/>
			<path class="st0" d="M355.9,239.8c3,5.3,6.1,10.7,9.2,16.1C362,250.6,358.9,245.2,355.9,239.8z"/>
			<path class="st0" d="M365.1,255.9c-3.1-5.4-6.2-10.8-9.2-16.1C359,245.2,362.1,250.6,365.1,255.9z"/>
			<path class="st2" d="M340.9,213.8c8.1,14.1,16.2,28.1,24.4,42.1c2.7,4.6,2.9,7.5,0.2,10.2c1.7-1.9,2.1-3.7,1.4-6.2
				c-0.1-0.3-0.2-0.5-0.3-0.8c0-0.2-0.1-0.4-0.2-0.6c-0.3-0.9-0.7-1.7-1.3-2.6c-3-5.3-6.1-10.7-9.2-16.1c-0.1-0.3-0.2-0.5-0.4-0.8
				C350.6,230.6,345.8,222.2,340.9,213.8z"/>
			<path class="st1" d="M352.9,369.3c0.1-3.9,3-6.8,7.3-7.1c0.1,0,0.1,0,0.2,0c-4.2,0.3-7.1,3.2-7.3,7.1c-0.1,3.7,2.5,7,6.6,7.3
				c-0.1,0-0.1,0-0.2,0C355.4,376.3,352.8,373,352.9,369.3z"/>
			<path class="st1" d="M342.6,370.2c0,0.6-0.2,1.3-0.4,1.8c-0.1,0.2-0.1,0.3-0.2,0.4C342.3,371.7,342.5,371,342.6,370.2z"/>
			<path class="st0" d="M341.9,372.6c0-0.1,0.1-0.1,0.1-0.2c0.1-0.1,0.1-0.2,0.2-0.4c0,0.1-0.1,0.3-0.2,0.5s-0.1,0.3-0.2,0.4
				c0,0.1-0.1,0.2-0.2,0.2c0,0,0,0,0,0c0.1-0.1,0.1-0.2,0.1-0.3C341.9,372.8,341.9,372.7,341.9,372.6z"/>
			<path class="st0" d="M341.9,372.6c0,0.1-0.1,0.1-0.1,0.2c0,0.1-0.1,0.2-0.1,0.3c0.1-0.1,0.1-0.3,0.1-0.4
				C341.9,372.7,341.9,372.7,341.9,372.6z"/>
			<path class="st0" d="M341.6,373.2c0,0.1-0.1,0.1-0.1,0.2c0,0-0.1,0.1-0.1,0.1C341.5,373.4,341.5,373.3,341.6,373.2z"/>
			<path class="st1" d="M326.5,362c2.6,0,5.3-0.1,7.9,0c5,0.1,8.2,2.9,8.3,7.2c0,1.1-0.1,2-0.5,2.9c0.2-0.6,0.4-1.2,0.4-1.8
				c0,0,0-0.1,0-0.1c0-0.3,0-0.6,0-0.8c-0.1-4.3-3.3-7.1-8.3-7.2c-2.6-0.1-5.3,0-7.9,0v-0.1c0-9.2,0-17.7,0-26.5h0.1
				C326.5,344.4,326.5,353,326.5,362z"/>
			<path class="st1" d="M326.5,335.5l-0.1,0.1c0,0,0-0.1,0-0.1H326.5z"/>
			<path class="st2" d="M326.4,188.6c4.9,8.4,9.7,16.8,14.5,25.1c-4.9-8.4-9.7-16.9-14.6-25.2c-0.1-0.2-0.2-0.4-0.3-0.6
				C326.1,188.1,326.2,188.4,326.4,188.6z"/>
			<path class="st2" d="M324.7,185.9c0.1,0.2,0.3,0.4,0.4,0.6c-0.1-0.2-0.3-0.5-0.5-0.7c0,0,0,0,0-0.1
				C324.6,185.8,324.7,185.9,324.7,185.9z"/>
			<path class="st0" d="M324.3,185.4c0.1,0.1,0.2,0.2,0.3,0.3c-0.3-0.3-0.5-0.7-0.9-0.9c0,0,0.1,0,0.1,0.1
				C324,185.1,324.2,185.2,324.3,185.4z"/>
			<path class="st0" d="M324.2,185.5c-0.2-0.2-0.3-0.4-0.5-0.5c-0.8-0.7-1.6-1.2-2.4-1.6c0.9,0.3,1.7,0.8,2.4,1.5
				c-0.3-0.3-0.6-0.5-0.9-0.7c0.2,0.1,0.3,0.2,0.4,0.3c0.1,0.1,0.3,0.2,0.4,0.4c0.3,0.3,0.6,0.6,0.9,0.9c0,0,0,0,0,0.1
				c0.2,0.2,0.3,0.4,0.5,0.7c0.3,0.5,0.6,0.9,0.9,1.4c0.1,0.2,0.2,0.4,0.3,0.6c4.9,8.4,9.8,16.8,14.6,25.2
				c4.9,8.4,9.7,16.9,14.6,25.2c0.2,0.3,0.3,0.5,0.4,0.8c-0.2-0.3-0.3-0.6-0.5-0.8c-9.6-16.8-19.4-33.6-29.1-50.4
				c-0.5-0.9-1-1.8-1.7-2.7C324.5,185.7,324.4,185.6,324.2,185.5z"/>
			<path class="st2" d="M323.7,184.8c-0.1-0.1-0.3-0.2-0.4-0.4C323.4,184.6,323.6,184.7,323.7,184.8z"/>
			<path class="st0" d="M322.8,184.2c0.3,0.2,0.6,0.5,0.9,0.7c-0.7-0.7-1.6-1.2-2.4-1.5c0,0-0.1,0-0.1,0c-0.2-0.1-0.5-0.2-0.7-0.2
				c0.8,0.2,1.5,0.5,2.2,0.9C322.7,184.1,322.7,184.1,322.8,184.2C322.8,184.1,322.8,184.1,322.8,184.2z"/>
			<path class="st2" d="M323.3,184.5c-0.1-0.1-0.3-0.2-0.4-0.3c0,0,0,0-0.1-0.1C322.9,184.2,323.1,184.3,323.3,184.5z"/>
			<path class="st2" d="M322.8,184.1c0,0-0.1-0.1-0.1-0.1c-0.1-0.1-0.2-0.1-0.3-0.2C322.5,183.9,322.6,184,322.8,184.1z"/>
			<path class="st2" d="M322.3,183.8c0.1,0.1,0.2,0.1,0.3,0.2c-0.7-0.4-1.5-0.7-2.2-0.9c-0.1,0-0.1,0-0.2,0
				c-0.2-0.1-0.3-0.1-0.5-0.1C320.6,183.1,321.5,183.4,322.3,183.8C322.3,183.8,322.3,183.8,322.3,183.8z"/>
			<path class="st0" d="M319.5,183c0.2,0,0.5,0,0.8,0.1c0.1,0,0.1,0,0.2,0c0.2,0.1,0.5,0.1,0.7,0.2C320.6,183.2,320,183.1,319.5,183
				z"/>
			<path class="st0" d="M319,183c0.1,0,0.2,0,0.3,0C319.2,183,319.1,183,319,183z"/>
			<path class="st0" d="M319,182.9c0,0-0.1,0-0.1,0C318.9,182.9,318.9,182.9,319,182.9z"/>
			<path class="st0" d="M318,183c-0.1,0-0.2,0-0.4,0.1c0,0-0.1,0-0.1,0C317.7,183,317.8,183,318,183z"/>
			<path class="st2" d="M318.3,183c-1.1,0.1-2.2,0.4-3.2,1.1c0.6-0.4,1.2-0.7,1.8-0.9c0.1,0,0.2-0.1,0.4-0.1c0.1,0,0.2-0.1,0.3-0.1
				c0.1,0,0.2-0.1,0.4-0.1C318.1,182.9,318.2,182.9,318.3,183c0-0.1,0.1-0.1,0.1-0.1c0.1,0,0.3,0,0.4,0c0,0,0.1,0,0.1,0
				c0,0,0.1,0,0.1,0c0,0,0,0,0.1,0c0.1,0,0.2,0,0.4,0c0.1,0,0.2,0,0.3,0c0.9,0.1,1.8,0.4,2.6,0.9c-0.8-0.5-1.7-0.7-2.6-0.8
				c0.2,0,0.4,0.1,0.5,0.1c-0.2-0.1-0.5-0.1-0.8-0.1c-0.1,0-0.1,0-0.2,0c-0.1,0-0.2,0-0.3,0c-0.2,0-0.4,0-0.6,0
				C318.4,183,318.3,183,318.3,183z"/>
			<path class="st0" d="M317.6,183c-0.1,0-0.2,0.1-0.3,0.1C317.4,183.1,317.5,183.1,317.6,183C317.6,183,317.6,183,317.6,183z"/>
			<path class="st0" d="M317.5,183c-0.1,0-0.2,0-0.2,0.1c-0.1,0-0.2,0.1-0.4,0.1c0,0-0.1,0-0.1,0C317.1,183.1,317.3,183.1,317.5,183
				z"/>
			<path class="st0" d="M316.8,183.2c0,0,0.1,0,0.1,0c-0.6,0.2-1.2,0.5-1.8,0.9c0,0-0.1,0.1-0.1,0.1c-0.4,0.3-0.9,0.6-1.3,1
				C314.6,184.3,315.7,183.6,316.8,183.2z"/>
			<path class="st2" d="M304.5,229.7c-1.8,3.1-3.6,6.2-5.4,9.3C300.9,235.9,302.7,232.8,304.5,229.7z"/>
			<path class="st2" d="M302.9,203.4c-0.1-0.1-0.1-0.2-0.2-0.3c0,0,0,0,0.1,0C302.8,203.2,302.9,203.2,302.9,203.4
				C302.9,203.3,302.9,203.4,302.9,203.4z"/>
			<path class="st2" d="M318.9,205c-9.7,16.8-19,32.9-28.3,49c0-0.1-0.1-0.1-0.1-0.1c2.9-4.9,5.8-9.9,8.6-14.9
				c1.8-3.1,3.6-6.2,5.4-9.3c4.7-8.2,9.4-16.4,14.3-24.8C318.8,205,318.8,205,318.9,205z"/>
			<path class="st2" d="M304.5,229.7c-1.8,3.1-3.6,6.2-5.4,9.3c-2.9,5-5.8,9.9-8.6,14.9C295.1,245.9,299.8,237.8,304.5,229.7z"/>
			<path class="st2" d="M294.1,256.7c3.2,3,2.9,5.8-0.2,11.1c-4,6.9-7.9,13.7-11.8,20.6l-0.1-0.1c3.9-6.8,7.9-13.7,11.8-20.6
				C296.7,262.5,297.1,259.7,294.1,256.7z"/>
			<path class="st2" d="M299.1,239c-2.9,5-5.7,10-8.6,14.9C293.4,248.9,296.2,244,299.1,239z"/>
			<path class="st0" d="M290.6,254l-0.1-0.1C290.5,253.9,290.6,253.9,290.6,254z"/>
			<path class="st0" d="M287.4,294.9C287.4,294.9,287.4,295,287.4,294.9c-0.1-0.9-0.5-1.8-1.2-2.8c0.2,0.3,0.4,0.6,0.6,0.9
				c0,0.1,0,0.1,0.1,0.1c0.2,0.4,0.3,0.7,0.4,1C287.3,294.4,287.4,294.6,287.4,294.9z"/>
			<path class="st2" d="M287,293.3c0.1,0.3,0.2,0.6,0.3,0.9c-0.1-0.4-0.2-0.7-0.4-1C286.9,293.2,286.9,293.2,287,293.3z"/>
			<path class="st2" d="M287,293.3c0-0.1-0.1-0.1-0.1-0.2c0,0,0-0.1-0.1-0.1c-0.2-0.3-0.4-0.6-0.6-1
				C286.5,292.4,286.8,292.9,287,293.3z"/>
			<path class="st2" d="M285,302.3c-2.2,3.7-4.3,7.5-6.5,11.2c-1.3,2.2-2.6,4.4-4,6.9c1.4-2.5,2.7-4.7,3.9-7
				c2.1-3.7,4.2-7.5,6.4-11.2c0.1-0.2,0.2-0.4,0.3-0.5c1.4-2.5,2.2-4.3,2.3-5.9c0,0,0-0.1,0-0.1c0-0.3,0-0.5,0-0.7c0,0,0,0,0-0.1
				c0-0.3-0.1-0.5-0.1-0.8c-0.1-0.3-0.2-0.6-0.3-0.9C288.2,295.7,287.4,298.2,285,302.3z"/>
			<path class="st0" d="M268,143.5c4.3,7.1,8.3,14.3,12.5,21.5c7.4,12.5,14.6,25,22.2,38.1c0,0,0,0,0,0.1
				c-7.7-13.2-15-25.8-22.4-38.4c-4.2-7.2-8.2-14.4-12.5-21.5c-0.4-0.7-0.9-1.3-1.4-1.8C267,142.1,267.5,142.7,268,143.5z"/>
			<path class="st2" d="M266.2,141.3c-1-0.9-2-1.5-3.1-1.8c1.9,0.5,3.6,1.8,4.9,3.9c4.3,7.1,8.4,14.3,12.5,21.5
				c7.3,12.5,14.6,25.1,22.3,38.2c0,0,0,0-0.1,0c-7.6-13.1-14.9-25.6-22.2-38.1c-4.2-7.2-8.2-14.4-12.5-21.5c-0.5-0.8-1-1.4-1.6-2
				C266.3,141.4,266.3,141.4,266.2,141.3z"/>
			<path class="st2" d="M262.7,139.4c-0.1,0-0.2-0.1-0.3-0.1C262.5,139.3,262.6,139.3,262.7,139.4z"/>
			<path class="st2" d="M262.4,139.3c0.1,0,0.2,0.1,0.3,0.1C262.6,139.4,262.5,139.4,262.4,139.3z"/>
			<path class="st2" d="M262.2,162.8c0.1,0.2,0.2,0.3,0.3,0.5c-0.2-0.2-0.3-0.5-0.5-0.8C262.1,162.6,262.1,162.7,262.2,162.8z"/>
			<path class="st2" d="M262.5,163.3c-0.1-0.2-0.2-0.3-0.3-0.5c0,0,0,0,0,0.1C262.4,163,262.4,163.1,262.5,163.3z"/>
			<path class="st2" d="M264.2,290c-1.5,2.4-2.2,4.4-2.2,6.1h-0.2c0-1.7,0.8-3.7,2.2-6.1c4-6.9,8-13.9,12-20.8
				c-6.5-4.1-7.2-7-3.3-13.7c6.9-11.8,13.6-23.5,20.4-35.2c0.9-1.5,1.1-2.7,0.1-4.4c-10.3-17.5-20.5-35.1-30.7-52.6
				c7.7,13.1,15.4,26.2,23.1,39.4c2.6,4.4,5.1,8.8,7.7,13.2c1,1.7,0.8,2.9-0.1,4.4c-0.4,0.7-0.9,1.5-1.3,2.2
				c-1.3,2.2-2.6,4.4-3.8,6.6c-2.7,4.7-5.5,9.4-8.2,14.1c-2.4,4.1-4.7,8.2-7,12.3c-3.8,6.7-3.2,9.6,3.3,13.7
				C272.2,276.1,268.2,283.1,264.2,290z"/>
			<polygon class="st2" points="262,296.1 261.8,296.2 261.8,296.1 			"/>
			<path class="st2" d="M262,296.2c0,2.7,1.7,4.6,5.3,7c-0.9,1.6-1.8,3.2-2.8,4.9c0.9-1.6,1.8-3.2,2.7-4.8c-1.6-1.1-2.8-2-3.6-3
				c-0.2-0.2-0.3-0.4-0.5-0.5c-0.9-1.1-1.3-2.3-1.3-3.6H262z"/>
			<path class="st0" d="M261.8,139.4c1.5,0.1,3,0.7,4.4,1.9c0.1,0.1,0.1,0.1,0.2,0.2c0.5,0.5,1,1.1,1.4,1.8
				c4.3,7.1,8.3,14.3,12.5,21.5c7.4,12.6,14.7,25.2,22.4,38.4c0-0.1,0-0.1,0-0.1c0,0.1,0.1,0.2,0.2,0.3v0c0,0,0,0-0.1,0
				c-7.7-13.2-15-25.8-22.4-38.4c-4.2-7.2-8.2-14.4-12.5-21.5C266.3,140.9,264.1,139.6,261.8,139.4z"/>
			<path class="st2" d="M261.3,161.5c0.2,0.2,0.3,0.4,0.4,0.6c0.2,0.3,0.4,0.5,0.5,0.7c0,0,0,0,0-0.1c-0.1-0.2-0.4-0.5-0.7-0.9
				c-0.1-0.1-0.1-0.2-0.2-0.3V161.5z"/>
			<polygon class="st2" points="261.8,296.1 261,296.2 261,296.1 			"/>
			<path class="st2" d="M260.9,296.8c-0.1,1.3-0.8,2.5-2,3.8c-0.2,0.3-0.5,0.5-0.8,0.8c0.1-0.1,0.2-0.3,0.4-0.4
				c0.1-0.1,0.2-0.2,0.3-0.4C260,299.3,260.7,298.1,260.9,296.8z"/>
			<path class="st2" d="M258.9,139.9c0.7-0.3,1.4-0.5,2.1-0.6c0.2,0,0.4,0,0.6,0c0.1,0,0.2,0,0.4,0c0.1,0,0.3,0,0.4,0.1
				c0.1,0.1,0.2,0.1,0.3,0.1c0.1,0,0.2,0.1,0.4,0.1c1.1,0.3,2.2,0.9,3.1,1.8c-1.3-1.2-2.8-1.9-4.4-1.9c-0.2,0-0.3,0-0.5,0
				c-0.2,0-0.3,0-0.5,0C260.2,139.4,259.5,139.6,258.9,139.9z"/>
			<path class="st0" d="M261,139.3c-0.7,0.1-1.4,0.3-2.1,0.6c-0.1,0-0.3,0.1-0.4,0.2c-0.5,0.2-0.9,0.5-1.3,0.8
				C258.4,139.9,259.6,139.4,261,139.3z"/>
			<path class="st2" d="M257.6,301.9c0.2-0.1,0.3-0.3,0.5-0.4c-0.3,0.3-0.7,0.6-1,0.9C257.2,302.2,257.4,302,257.6,301.9z"/>
			<path class="st2" d="M257.6,301.9c-0.2,0.2-0.4,0.3-0.5,0.5c0,0,0,0-0.1,0.1c-0.4,0.3-0.8,0.6-1.2,0.9c0.8-0.6,1.6-1.3,2.2-1.9
				C257.9,301.6,257.7,301.7,257.6,301.9z"/>
			<path class="st0" d="M256.6,141.3c0.1-0.1,0.3-0.3,0.4-0.4C256.9,141,256.8,141.2,256.6,141.3z"/>
			<path class="st2" d="M257,302.4c-0.4,0.3-0.7,0.7-1.2,1l-0.1,0.1c0-0.1,0-0.1,0-0.1c0.1-0.1,0.1-0.1,0.1-0.1
				C256.2,303,256.6,302.7,257,302.4z"/>
			<path class="st2" d="M245.3,159.4c0,0,0,0.1,0.1,0.1l-0.1,0.1c0,0,0,0,0-0.1v0C245.3,159.5,245.3,159.5,245.3,159.4
				C245.3,159.5,245.3,159.4,245.3,159.4L245.3,159.4z"/>
			<path class="st0" d="M245.3,159.5L245.3,159.5C245.3,159.5,245.3,159.6,245.3,159.5L245.3,159.5
				C245.3,159.6,245.3,159.5,245.3,159.5z"/>
			<path class="st0" d="M245.3,159.5L245.3,159.5c-0.1,0-0.1,0-0.1,0L245.3,159.5C245.3,159.4,245.3,159.5,245.3,159.5
				C245.3,159.5,245.3,159.5,245.3,159.5L245.3,159.5z"/>
			<path class="st2" d="M245.3,159.4C245.3,159.4,245.3,159.5,245.3,159.4C245.3,159.5,245.3,159.4,245.3,159.4L245.3,159.4z"/>
			<path class="st0" d="M240.2,288.8c0.2-0.1,0.4-0.3,0.6-0.5c-0.3,0.3-0.7,0.6-1,0.8C239.9,289,240.1,288.9,240.2,288.8z"/>
			<path class="st0" d="M239.5,289.4c-0.2,0.1-0.3,0.2-0.5,0.4c0,0-0.1,0-0.1,0.1c0.4-0.3,0.8-0.7,1.3-1c-0.1,0.1-0.3,0.2-0.4,0.4
				C239.7,289.2,239.6,289.2,239.5,289.4C239.5,289.3,239.5,289.3,239.5,289.4z"/>
			<path class="st0" d="M239,289.7c0.2-0.1,0.3-0.2,0.5-0.4c0,0,0,0,0.1,0c0.1,0,0.1-0.1,0.2-0.1c-0.3,0.2-0.5,0.5-0.8,0.7
				c0,0.1-0.1,0.1-0.1,0.1c0,0,0.1-0.1,0.1-0.1C238.9,289.8,239,289.8,239,289.7z"/>
			<path class="st0" d="M239.5,289.4c-0.2,0.1-0.3,0.3-0.5,0.4C239.2,289.6,239.3,289.5,239.5,289.4z"/>
			<path class="st0" d="M238.9,289.8c0,0,0.1,0,0.1-0.1C239,289.8,238.9,289.8,238.9,289.8C238.9,289.9,238.9,289.8,238.9,289.8z"/>
			<path class="st2" d="M238.9,289.9c0,0-0.1,0.1-0.1,0.1c-0.1,0-0.1,0.1-0.1,0.1C238.7,290.1,238.8,290,238.9,289.9z"/>
			<path class="st0" d="M238.6,290.2c0,0.1-0.1,0.1-0.2,0.2C238.4,290.3,238.5,290.3,238.6,290.2z"/>
			<path class="st2" d="M232.3,254c-0.2,0.2-0.5,0.3-0.7,0.5C231.8,254.3,232,254.2,232.3,254z"/>
			<path class="st2" d="M228.8,188.3c-2.8,4.8-5.6,9.8-8.6,14.8c0,0,0-0.1,0-0.1C223.1,198,225.9,193.1,228.8,188.3z"/>
			<path class="st2" d="M230.2,185.9c-0.5,0.8-0.9,1.6-1.4,2.4c-2.8,4.8-5.6,9.7-8.7,14.8c0,0,0-0.1-0.1-0.1
				c5.3-8.8,10.2-17.4,15.3-25.9c1.3-2.1,1.2-3.6-0.1-5.7c-7.1-12-14.1-24.1-21.1-36.1c7.1,12,14.1,24,21.2,36.1
				c1.2,2.1,1.3,3.6,0.1,5.7c0,0,0,0,0,0c-1.3,2.1-2.6,4.3-3.8,6.4C231.1,184.3,230.6,185.1,230.2,185.9z"/>
			<path class="st2" d="M220.1,203.2c3-5.1,5.8-10,8.6-14.8c0.5-0.8,1-1.6,1.4-2.4C226.9,191.5,223.6,197.3,220.1,203.2
				C220.1,203.2,220.1,203.2,220.1,203.2z"/>
			<path class="st0" d="M220.1,203.2C220.1,203.2,220.1,203.2,220.1,203.2c0,0.1,0,0.1,0,0.1c0,0,0-0.1-0.1-0.1
				C220,203.2,220,203.1,220.1,203.2C220.1,203.1,220.1,203.2,220.1,203.2C220.1,203.2,220.1,203.2,220.1,203.2z"/>
			<path class="st0" d="M220.1,203.1C220.1,203.1,220.1,203.1,220.1,203.1c0,0.1,0,0.1,0,0.1C220.1,203.2,220.1,203.1,220.1,203.1
				C220.1,203.1,220.1,203.1,220.1,203.1z"/>
			<path class="st0" d="M212.4,189.7c2.1,4.4,4.8,8.5,7.6,13.3c0,0,0,0,0,0c-2.9-4.9-5.7-9.1-7.8-13.6c-0.3-0.5-0.5-1.1-0.8-1.6
				C211.8,188.4,212.1,189,212.4,189.7z"/>
			<path class="st2" d="M211.7,101.8c-1-1.6-2-2.9-3.1-3.9c1.1,0.9,2.2,2.3,3.2,4c10.5,18.1,21,36.1,31.5,54.2c0.6,1,1.2,1.9,2,3.3
				l0,0c-0.9-1.5-1.5-2.4-2.1-3.4C232.7,137.9,222.2,119.9,211.7,101.8z"/>
			<path class="st0" d="M208.6,97.9c1.1,1,2.1,2.2,3.1,3.9c10.5,18.1,21,36.1,31.5,54.2c0.6,1,1.2,2,2.1,3.4l-0.1,0.1c0,0,0,0,0.1,0
				l-0.1,0.1c-0.8-1.6-1.4-2.5-2-3.5c-10.5-18.1-21-36.1-31.5-54.2c-1.6-2.6-3.3-4.4-5-5.3c0.6,0.3,1.2,0.7,1.8,1.2
				C208.5,97.9,208.6,97.9,208.6,97.9z"/>
			<path class="st0" d="M212.3,189.7c-2-4.2-4.8-6.3-7.7-6.5c0.1,0,0.1,0,0.2,0c2.3,0.2,4.6,1.6,6.4,4.4c0.1,0.1,0.1,0.2,0.2,0.3
				c0.3,0.5,0.6,1,0.8,1.6c2.1,4.5,4.9,8.7,7.8,13.6c0,0,0,0,0,0c0,0,0,0.1,0.1,0.1c0,0,0,0,0,0
				C217.2,198.2,214.4,194.2,212.3,189.7z"/>
			<path class="st0" d="M205.9,96.3c0.2,0.1,0.5,0.2,0.8,0.3c-0.4-0.2-0.8-0.3-1.1-0.4C205.6,96.2,205.8,96.3,205.9,96.3z"/>
			<path class="st0" d="M205.5,96.2c-0.2,0-0.3-0.1-0.5-0.1C205.1,96.1,205.3,96.1,205.5,96.2z"/>
			<path class="st2" d="M205.3,96.1c-0.1,0-0.2-0.1-0.3-0.1c-0.1,0-0.2,0-0.3-0.1C204.9,95.9,205.1,96,205.3,96.1z"/>
			<path class="st2" d="M204.6,95.9C204.6,95.9,204.6,95.9,204.6,95.9c-0.3,0-0.6,0-0.9,0C204,95.9,204.3,95.9,204.6,95.9z"/>
			<path class="st2" d="M202.6,96.2c-0.1,0.1-0.2,0.1-0.4,0.1C202.4,96.3,202.5,96.3,202.6,96.2z"/>
			<path class="st2" d="M202.2,96.3c-0.1,0-0.1,0-0.1,0.1C202.2,96.4,202.2,96.3,202.2,96.3z"/>
			<path class="st2" d="M201.6,96.6c0.2-0.1,0.3-0.2,0.5-0.2C201.9,96.5,201.8,96.5,201.6,96.6z"/>
			<path class="st2" d="M200.8,184c0.2-0.1,0.3-0.2,0.5-0.2C201.2,183.8,201,183.9,200.8,184z"/>
			<path class="st2" d="M200.8,184c-1.9,1-3.6,2.9-4.9,5.6C197.1,186.9,198.9,184.9,200.8,184z"/>
			<path class="st2" d="M196.5,362c-14,0-27.9,0-42.2,0v-0.1c14.3,0,28.2,0,42.2,0V362z"/>
			<path class="st1" d="M193.3,85.2c0.1,4.6-1.9,7.4-6.1,8.2C191.3,92.5,193.3,89.8,193.3,85.2z"/>
			<path class="st1" d="M192.4,77.5c0.2,0.6,0.3,1.2,0.4,1.9C192.7,78.8,192.5,78.1,192.4,77.5z"/>
			<path class="st1" d="M191.7,74.7c0.2,0.6,0.4,1.2,0.5,1.8C192,75.9,191.9,75.3,191.7,74.7z"/>
			<path class="st0" d="M188.1,203.4C188.1,203.4,188.1,203.4,188.1,203.4C188.1,203.4,188.1,203.3,188.1,203.4
				C188.1,203.3,188.1,203.3,188.1,203.4C188.1,203.3,188.1,203.3,188.1,203.4z"/>
			<path class="st2" d="M195.7,190c-2,4.4-4.8,8.6-7.6,13.4c0,0,0-0.1,0-0.1c0,0,0,0,0,0c0,0,0,0,0,0c0,0,0,0,0,0
				C190.8,198.5,193.6,194.4,195.7,190z"/>
			<path class="st2" d="M177.4,78.1c-0.2-0.4-0.3-0.8-0.5-1.2C177.1,77.3,177.2,77.7,177.4,78.1z"/>
			<path class="st1" d="M175.4,51.9c7.2,5.1,12.9,12.5,15.7,20.9C188.2,64.4,182.6,57.1,175.4,51.9z"/>
			<path class="st2" d="M184.2,196.8c-2.5-4.2-4.5-8.8-7.5-12.6c-1.3-1.6-2.2-3.1-2.8-4.6c0.6,1.4,1.5,2.8,2.7,4.3
				c3,3.8,5,8.4,7.5,12.6c1.2,2.1,2.5,4.2,3.9,6.6c2.8-4.9,5.8-9.1,7.9-13.8c3.4-7.7,10.9-8.8,15.3-1.8c-1.8-2.7-4.1-4.2-6.4-4.4
				c-0.1,0-0.1,0-0.2,0c-0.3,0-0.6,0-0.9,0c-0.1,0-0.1,0-0.2,0c-0.7,0.1-1.5,0.2-2.2,0.5c-0.2,0.1-0.3,0.2-0.5,0.2c0,0,0,0,0,0
				c-1.9,1-3.7,2.9-4.9,5.6c-0.1,0.1-0.1,0.2-0.2,0.4c-2.1,4.5-4.9,8.6-7.7,13.3C186.7,200.8,185.4,198.9,184.2,196.8z"/>
			<path class="st0" d="M173,50.4c0.4,0.2,0.8,0.5,1.2,0.8C173.8,50.9,173.4,50.7,173,50.4z"/>
			<path class="st2" d="M170.1,302.1c0.2-0.3,0.4-0.7,0.5-1C170.5,301.4,170.3,301.8,170.1,302.1z"/>
			<path class="st2" d="M170.1,302.1c-0.7,1.2-1.4,2.5-2.2,3.8c-0.2,0.4-0.5,0.8-0.7,1.1c0.2-0.4,0.4-0.7,0.6-1
				C168.5,304.7,169.3,303.4,170.1,302.1z"/>
			<path class="st2" d="M167.3,288.3c5.9,4.4,6.6,6.8,3.4,12.8c3.2-5.9,2.4-8.4-3.5-12.7c4.2-7.3,8.5-14.7,12.7-22
				c2.3-4.1,2.1-7.2-0.8-9.9c-0.9-0.9-2.1-1.4-3.4-2.4C185,238,194.3,221.8,204,205c-9.6,16.8-18.9,32.9-28.2,49
				c1.4,0.9,2.5,1.5,3.4,2.4c2.9,2.7,3.1,5.7,0.8,9.9C175.8,273.7,171.5,281,167.3,288.3z"/>
			<path class="st2" d="M166.6,308c0.1-0.1,0.1-0.2,0.2-0.3C166.8,307.8,166.7,307.9,166.6,308z"/>
			<path class="st2" d="M165.6,309.6c0.3-0.6,0.7-1.1,1-1.7c-0.5,1-1.1,2-1.7,3c-0.1,0.1-0.1,0.2-0.1,0.3c-0.3,0.5-0.6,0.9-0.8,1.4
				C164.5,311.6,165.1,310.6,165.6,309.6z"/>
			<path class="st2" d="M166.6,308.1c-1.2,2.1-2.4,4.2-3.6,6.3c0.3-0.6,0.7-1.2,1-1.8c0.3-0.5,0.6-1,0.8-1.4
				c0.1-0.1,0.1-0.2,0.1-0.3C165.5,310,166.1,309.1,166.6,308.1z"/>
			<path class="st0" d="M165.6,309.6c-0.6,1-1.1,2-1.7,3c0,0,0,0,0,0c0,0-0.1,0.1-0.1,0.1c-0.3,0.5-0.6,1-0.9,1.5
				C163.9,312.7,164.8,311.2,165.6,309.6z"/>
			<path class="st2" d="M163.7,158.2c0.4-0.6,0.7-1.1,1-1.7C164.4,157.1,164.1,157.7,163.7,158.2z"/>
			<path class="st2" d="M151.2,305.4c0.4-0.7,0.8-1.4,1.2-2.1c-0.2,0.4-0.4,0.7-0.6,1.1C151.6,304.7,151.4,305.1,151.2,305.4z"/>
			<path class="st2" d="M146.7,313.2c1-1.6,1.8-3.1,2.7-4.6C148.5,310.1,147.6,311.6,146.7,313.2
				C146.7,313.2,146.7,313.2,146.7,313.2z"/>
			<path class="st0" d="M145.7,295.7c0,0.1,0,0.1,0,0.2c0-0.1,0-0.2,0-0.3C145.7,295.6,145.7,295.7,145.7,295.7z"/>
			<path class="st2" d="M145.7,295.5c0,0,0,0.1,0,0.1C145.7,295.6,145.7,295.5,145.7,295.5C145.7,295.5,145.7,295.5,145.7,295.5z"/>
			<path class="st2" d="M145.6,295c0-0.1,0-0.2-0.1-0.4C145.6,294.7,145.6,294.9,145.6,295z"/>
			<path class="st2" d="M149.3,140c-2.6-1.4-5.3-0.9-7.5,1.2c2.2-2.2,4.9-2.7,7.6-1.3c1.7,0.9,3.2,2.7,4.3,4.4
				c3.1,4.9,5.9,10,9.1,15.4l-0.1,0.1c-3.2-5.4-6-10.5-9.1-15.4C152.5,142.7,151,141,149.3,140z"/>
			<path class="st2" d="M143.3,288.9c0.9,1.7,1.8,3.6,2.2,5.5c-0.4-1.9-1.3-3.8-2.2-5.4c-0.4-0.6-0.7-1.3-1.1-2
				C142.6,287.6,143,288.3,143.3,288.9z"/>
			<path class="st2" d="M149.4,308.6c-0.8,1.4-1.7,2.9-2.7,4.6c-1.3-2.1-2.4-4.1-3.5-5.9c-0.2-0.4-0.4-0.7-0.6-1.1
				c-0.4-0.7-0.8-1.4-1.2-2.1c0,0,0,0,0,0c1.5,2.6,3.2,5.7,5.3,9c1.4-2.4,2.7-4.6,3.9-6.6c-0.2,0.4-0.4,0.7-0.6,1.1
				C149.8,307.9,149.6,308.2,149.4,308.6z"/>
			<path class="st2" d="M143.2,307.3c1,1.8,2.2,3.8,3.5,5.9c0,0,0,0,0,0C145.4,311.1,144.3,309.1,143.2,307.3z"/>
			<path class="st0" d="M146.6,313.3c-2-3.5-3.8-6.7-5.3-9.3c0.4,0.7,0.8,1.4,1.3,2.2c0.2,0.4,0.4,0.7,0.6,1.1
				c1,1.8,2.2,3.8,3.5,5.9C146.6,313.2,146.6,313.3,146.6,313.3z"/>
			<path class="st2" d="M140.8,284.5c0.5,0.9,1,1.7,1.4,2.5C141.8,286.2,141.3,285.4,140.8,284.5z"/>
			<path class="st0" d="M141.3,303.9c0,0.1,0.1,0.1,0.1,0.2c0,0,0,0,0,0c0.4,0.6,0.8,1.3,1.2,2.1c-0.4-0.8-0.9-1.5-1.3-2.2
				C141.3,304,141.3,304,141.3,303.9C141.3,304,141.3,304,141.3,303.9z"/>
			<path class="st2" d="M138.5,280.4c0.2,0.3,0.3,0.6,0.5,0.9C138.8,280.9,138.7,280.6,138.5,280.4z"/>
			<path class="st2" d="M137.6,278.8c0.2,0.4,0.5,0.8,0.7,1.1C138.1,279.6,137.8,279.2,137.6,278.8z"/>
			<path class="st2" d="M135.7,256.3c0.5,0.8,0.9,1.8,1.2,2.8c-0.3-0.9-0.8-1.8-1.1-2.6c-1.7-3-3.4-6-5.2-9.1
				C132.4,250.4,134,253.3,135.7,256.3z"/>
			<path class="st2" d="M137.6,278.8c-2.6-4.4-3.9-6.7-5.2-8.8C134.1,272.8,135.8,275.8,137.6,278.8z"/>
			<path class="st0" d="M117.7,224.9c1.7,3,3.4,6,5.2,9C121.1,230.9,119.4,227.9,117.7,224.9z"/>
			<path class="st2" d="M117.1,223.9c-0.7-1.1-1.3-2.3-2-3.5c0,0,0-0.1,0-0.1C115.7,221.5,116.4,222.7,117.1,223.9z"/>
			<path class="st0" d="M116.5,254.9c0.1,0,0.1-0.1,0.2-0.1C116.7,254.8,116.6,254.9,116.5,254.9z"/>
			<path class="st2" d="M113.2,257.5c0.8-1,1.9-1.8,3.3-2.6c0,0,0,0,0,0c-0.1,0-0.1,0.1-0.1,0.1C115.1,255.8,114,256.6,113.2,257.5z
				"/>
			<path class="st0" d="M115.1,220.4c0.7,1.2,1.3,2.3,2,3.5c0.2,0.4,0.4,0.7,0.6,1c1.7,3,3.4,6,5.2,9c2.6,4.5,5.2,9,7.8,13.5
				c1.7,3,3.5,6,5.2,9.1c0.4,0.8,0.8,1.7,1.1,2.6c0,0,0,0.1,0,0.1c0.3,1,0.5,2.1,0.3,3v-0.1c0-0.1,0-0.2,0-0.2
				c0.1-1.8-0.7-3.9-1.6-5.5C128.9,244.3,121.8,232.3,115.1,220.4c-0.2-0.2-0.2-0.4-0.2-0.5c0,0.1,0.1,0.2,0.2,0.3
				C115,220.2,115,220.3,115.1,220.4C115.1,220.3,115.1,220.4,115.1,220.4z"/>
			<path class="st0" d="M114.6,219.1c0.1,0.3,0.2,0.6,0.2,0.8C114.7,219.6,114.6,219.4,114.6,219.1z"/>
			<path class="st2" d="M105.8,17.8c-0.1,0.1-0.3,0.2-0.5,0.3C105.5,18,105.6,17.9,105.8,17.8z"/>
			<path class="st2" d="M105.1,203.1l0.1-0.1C105.2,203,105.2,203.1,105.1,203.1z"/>
			<path class="st3" d="M274.5,320.4c30,0,59.2,0,89,0c-0.5-0.8-0.9-1.6-1.4-2.4c-3.2-5.5-6.3-10.9-9.3-16.1
				c-3.8-6.5-3.2-9.1,2.9-13.6c-0.6-1.1-1.2-2.2-1.8-3.3c-3.7-6.5-7.5-12.9-11.1-19.4c-2.5-4.4-1.3-8.1,3.1-10.6
				c0.5-0.3,0.9-0.6,1.4-1c-9.5-16.4-18.8-32.5-28.4-49.1c0-0.1,0-0.1-0.1-0.1c-4.9,8.4-9.6,16.7-14.3,24.8
				c-4.7,8.1-9.4,16.2-14,24.2c0,0,0,0,0,0.1l0.1,0.1c0.7,0.5,1.4,0.9,2,1.4c0.1,0.1,0.3,0.2,0.4,0.3c0.1,0.2,0.3,0.3,0.4,0.4
				c0.2,0.2,0.5,0.4,0.7,0.6c3,3,2.6,5.8-0.3,11c-3.9,6.9-7.9,13.8-11.8,20.6l0.1,0.1c0.9,0.7,1.7,1.3,2.4,1.9
				c0.5,0.4,0.9,0.8,1.2,1.2c0.2,0.2,0.3,0.4,0.5,0.5c0.2,0.3,0.4,0.6,0.6,1c-0.2-0.3-0.4-0.6-0.6-0.9c0.7,1,1.1,1.9,1.2,2.9
				c0,0.3,0,0.5,0,0.7c-0.1,1.6-0.9,3.5-2.3,5.9c-0.1,0.2-0.2,0.4-0.3,0.5c-2.2,3.7-4.3,7.5-6.5,11.2c-1.3,2.3-2.6,4.6-4,7.1
				C274.4,320.4,274.4,320.4,274.5,320.4z M261.3,161.5v0.1C261.3,161.6,261.3,161.5,261.3,161.5c-10.9,18.6-21.5,36.7-31.9,54.9
				c-0.5,1-0.2,2.9,0.4,4c6.6,11.7,13.4,23.3,20.1,34.9c4,6.9,3.4,9.6-3.2,14c3.9,6.7,7.8,13.5,11.7,20.2c1.6,2.8,2.5,4.9,2.5,6.7
				c0,0.2,0,0.4,0,0.6c-0.2,1.3-0.9,2.5-2.1,3.8c-0.1,0.1-0.2,0.3-0.3,0.4c-0.1,0.1-0.3,0.2-0.5,0.4c-0.6,0.6-1.4,1.3-2.2,1.9
				c0,0,0,0-0.1,0.1c0,0,0,0,0,0.1c1.8,3.1,3.6,6.3,5.8,9.9c0,0,0-0.1,0.1-0.1c0.5-0.9,1-1.8,1.5-2.6c0.5-0.9,1-1.8,1.5-2.6
				c1-1.7,1.9-3.3,2.8-4.9c-3.6-2.4-5.3-4.3-5.3-7v-0.1c0-1.7,0.7-3.7,2.2-6.1c4-6.9,8-13.9,12-20.8c-6.5-4.1-7.1-7-3.3-13.7
				c2.3-4.1,4.6-8.2,6.9-12.3c2.7-4.7,5.4-9.4,8.2-14.1c1.3-2.2,2.5-4.4,3.8-6.6c0.4-0.7,0.9-1.5,1.3-2.2c0.9-1.5,1.1-2.7,0.1-4.4
				c-2.6-4.4-5.1-8.8-7.7-13.2c-7.7-13.2-15.3-26.3-23-39.4c-0.2-0.4-0.5-0.7-0.9-1.2C261.6,161.9,261.5,161.7,261.3,161.5z
				 M256.6,141.3c0.1-0.1,0.3-0.3,0.4-0.4C256.9,141,256.8,141.2,256.6,141.3z M220.3,203.2c0,0,0,0.1,0.1,0.1
				c4-6.8,7.7-13.3,11.5-19.8c1-2.1,2.2-4.3,3.5-6.4c0,0,0,0,0,0c1.2-2.1,1.1-3.6-0.1-5.7c-7.1-12.1-14.1-24.1-21.2-36.1
				c0-0.1-0.1-0.1-0.1-0.2c-2.4-4-4.7-8.1-7-12.1c-0.9-1.5-1.7-3-2.9-4.9c-0.9,1.4-1.5,2.5-2.2,3.6c-8.4,14.5-16.4,29.4-25.5,43.4
				c-3.3,5.2-4.5,9.4-2.8,13.9c0.1,0.2,0.1,0.4,0.2,0.6c0.6,1.5,1.5,3,2.8,4.6c3,3.8,5,8.4,7.5,12.6c1.2,2.1,2.5,4.1,3.9,6.6
				c0,0,0-0.1,0-0.1c0,0,0,0,0,0c0,0,0,0.1,0,0.1c0,0,0,0,0,0c0,0,0,0,0.1,0c2.9-4.9,5.8-9.2,7.9-13.8c1.8-4,4.6-6.2,7.6-6.4
				c0.3,0,0.6,0,0.9,0c2.9,0.2,5.7,2.3,7.7,6.5c2.1,4.5,4.9,8.6,7.8,13.4c0,0,0,0.1-0.1,0.1c0.1,0,0.1,0.1,0.1,0.1c0,0,0-0.1,0-0.1
				c0,0,0,0.1,0.1,0.1C220.2,203.3,220.2,203.2,220.3,203.2z M206.6,96.6c-0.2-0.1-0.5-0.2-0.8-0.3c-0.1,0-0.3-0.1-0.4-0.1
				c-0.2-0.1-0.4-0.1-0.5-0.1c0.2,0,0.3,0.1,0.5,0.1C205.9,96.3,206.3,96.4,206.6,96.6z M202.2,96.3c0,0-0.1,0-0.1,0.1
				c-0.2,0-0.3,0.1-0.5,0.2c0.2-0.1,0.3-0.1,0.5-0.2C202.1,96.4,202.2,96.4,202.2,96.3c0.1,0,0.3-0.1,0.4-0.1
				C202.5,96.3,202.4,96.3,202.2,96.3z M179.1,256.5c2.9,2.7,3.1,5.8,0.8,9.9c-4.2,7.3-8.5,14.7-12.7,22c5.9,4.3,6.6,6.8,3.5,12.7
				c0,0,0,0,0,0c-0.2,0.3-0.3,0.7-0.5,1c-0.8,1.3-1.6,2.6-2.3,3.9c-0.2,0.4-0.4,0.7-0.6,1c-0.1,0.1-0.1,0.2-0.2,0.4l-0.1,0.1
				c-0.1,0.1-0.2,0.3-0.3,0.5c0,0,0,0,0,0c-0.3,0.5-0.6,1.1-1,1.7c-0.9,1.5-1.8,3-2.6,4.6c0.3-0.5,0.6-1,0.9-1.5
				c-0.3,0.5-0.6,1.1-0.9,1.6c-1.1,2-2.3,4-3.5,6.1c29.9,0,59.2,0,89.2,0c-3.7-6.4-7.1-12.3-10.5-18.3c-3.1-5.4-3.6-7.9-0.6-11.1
				c0.2-0.3,0.5-0.5,0.8-0.8c0.1,0,0.1-0.1,0.2-0.1c-0.1,0.1-0.1,0.1-0.2,0.2c0.1-0.1,0.1-0.1,0.2-0.2c0,0,0,0,0.1-0.1
				c0.1,0,0.1-0.1,0.1-0.1c0.1,0,0.1-0.1,0.1-0.1c0.3-0.2,0.5-0.5,0.8-0.7c-0.1,0-0.1,0.1-0.2,0.1c0.1-0.1,0.2-0.1,0.3-0.2
				c0.3-0.2,0.7-0.5,1-0.8l0.1-0.1c-3.9-6.8-7.9-13.7-11.8-20.5c-3.6-6.2-3.4-8.8,1.8-12.7c0.2-0.2,0.4-0.3,0.7-0.5
				c0.3-0.2,0.5-0.3,0.7-0.5l0.1-0.1c-9.3-16.2-18.7-32.3-28.3-49c0,0.1-0.1,0.1-0.1,0.1c-9.7,16.8-19,33-28.3,49.1
				C177,255.1,178.2,255.6,179.1,256.5z M154.3,361.9v0.1c14.3,0,28.2,0,42.2,0v-0.1c0-9,0-17.5,0-26.3v-0.1c-14.2,0-28,0-42.2,0
				v0.1C154.3,344.7,154.3,353.2,154.3,361.9z M164.7,156.5c-0.3,0.6-0.6,1.1-1,1.7C164.1,157.7,164.4,157.1,164.7,156.5z
				 M114.8,219.9c-0.1-0.3-0.2-0.6-0.2-0.8C114.6,219.4,114.7,219.6,114.8,219.9z M115,220.2c-0.1-0.1-0.1-0.2-0.2-0.3
				c0.1,0.1,0.1,0.3,0.2,0.4c6.8,12,13.9,24,20.7,36.1c0.9,1.6,1.7,3.7,1.6,5.5c0,0,0,0.1,0,0.2v0.1c0.1-0.9,0-1.9-0.3-3
				c0.3,0.9,0.5,1.8,0.5,2.7c0,0.1,0,0.2,0,0.2c0,0,0,0.1,0,0.2c0,0,0,0.1,0,0.2c0,0,0,0.1,0,0.1c-0.2,0-0.2,0-0.2,0.1
				c0,0.1,0,0.2-0.1,0.2c-0.7,2.5-3,4.6-4.8,7.1c0,0,0,0,0,0.1c3.4,5.8,7.3,12.3,10.9,19c1,1.9,2,4.3,2.4,6.4c0,0,0,0,0,0
				c0,0.1,0,0.2,0,0.3c0,0.1,0,0.1,0,0.2c0,0,0,0.1,0,0.1c0,0.3,0,0.5,0,0.8c-0.3,2-2.1,3.9-3.7,6c-0.2,0.3-0.4,0.6-0.6,0.9
				c0,0.1,0,0.1,0,0.1s0,0,0,0.1c0-0.1-0.1-0.1-0.1-0.2c0,0.1,0,0.1,0,0.1c0,0,0,0,0,0c1.5,2.6,3.3,5.8,5.3,9.3c0,0,0-0.1,0.1-0.1
				c0,0.1,0.1,0.1,0.1,0.2c2.2-3.7,4-6.9,5.8-10.1c0,0,0,0,0-0.1c-1.3-0.9-2.4-1.8-3.3-2.6c-1.4-1.4-2-2.9-2-4.5s0.7-3.5,1.9-5.7
				c1.8-3.1,3.6-6.3,5.4-9.4c2.3-4,4.6-8,6.9-12c-6.3-3.5-7.2-6.9-3.8-12.8c6.8-12,13.8-23.8,20.6-35.8c0.6-1.1,1-3,0.5-4
				c-10.4-18.2-21-36.4-31.9-55c-0.5,0.7-0.7,0.9-0.9,1.2c-10.4,17.8-20.8,35.7-31.1,53.6c-0.2,0.3-0.3,0.8-0.3,1.3
				c0,0.2,0,0.4,0,0.6v0.1c0,0.8,0.2,1.5,0.5,2.1C115,220.3,115,220.2,115,220.2z M116.7,254.8c0,0-0.1,0.1-0.2,0.1c0,0,0,0,0,0
				c-1.4,0.8-2.5,1.6-3.3,2.6c0.8-0.9,1.9-1.7,3.2-2.5c0,0,0.1-0.1,0.1-0.1C116.6,254.9,116.7,254.8,116.7,254.8z M84.3,184.9
				c3.5-3.1,8.3-2.4,11.3,2.2c1.7,2.6,3.1,5.3,4.6,7.9s3.1,5.2,4.8,8.2l0.1-0.1c0.1,0,0.1-0.1,0.1-0.1c0.9-1.3,1.5-2.4,2.1-3.4
				c10.7-18.5,21.5-36.9,32.2-55.4c0.5-0.8,0.9-1.5,1.5-2.1c0.2-0.3,0.5-0.5,0.7-0.8c2.2-2.1,4.9-2.6,7.5-1.2c1.7,1,3.2,2.7,4.3,4.4
				c3.1,4.9,5.9,10,9.1,15.4l0.1-0.1l0.1-0.1c0.2-0.3,0.3-0.5,0.4-0.8c0.1-0.2,0.3-0.4,0.4-0.6c0.4-0.6,0.7-1.1,1-1.7
				c0.1-0.1,0.2-0.2,0.2-0.4c10.6-18.2,21.1-36.3,31.7-54.5c1.3-2.2,2.6-3.7,4.1-4.7c0.3-0.2,0.6-0.3,0.9-0.5
				c0.2-0.1,0.3-0.1,0.5-0.2c0.5-0.2,0.9-0.3,1.4-0.3c0.4-0.1,0.9-0.1,1.3,0c-0.3,0-0.6,0-0.9,0c0.6,0,1.2,0,1.8,0.2
				c0.1,0,0.3,0.1,0.4,0.1c0.9,0.3,1.7,0.8,2.5,1.5c-0.6-0.5-1.2-0.9-1.8-1.2c1.7,0.9,3.4,2.7,5,5.3c10.5,18.1,21,36.1,31.5,54.2
				c0.6,1,1.2,1.9,2,3.5l0.1-0.1c0,0,0,0,0,0.1l0,0c0,0,0,0,0.1,0l0.1-0.1c0-0.1-0.1-0.1-0.1-0.1c2.5-4.2,4.7-8.1,7-12
				c0.8-1.4,1.6-2.9,2.5-4.2c0.3-0.5,0.7-1,1-1.4c0.2-0.2,0.4-0.4,0.7-0.7c1.8-1.6,3.8-2.2,5.8-1.8c-0.1,0-0.3,0-0.4,0
				c-0.1,0-0.2,0-0.4,0c-0.2,0-0.4,0-0.6,0c-1.3,0.1-2.6,0.7-3.8,1.6c0.4-0.3,0.9-0.6,1.3-0.8c-0.4,0.2-0.8,0.5-1.2,0.8
				c1.1-0.9,2.4-1.3,3.6-1.5c0.2,0,0.4,0,0.5,0c0.2,0,0.3,0,0.5,0c2.2,0.2,4.5,1.6,6.1,4.1c4.3,7.1,8.3,14.3,12.5,21.5
				c7.4,12.6,14.7,25.2,22.4,38.4c0.1,0,0.1,0,0.1,0c0,0,0,0,0,0c0.1,0,0.1,0,0.1-0.1c0-0.1-0.1-0.1-0.1-0.2c2.6-4.5,5-8.6,7.3-12.7
				c0.3-0.5,0.6-1.1,0.9-1.6c0.2-0.3,0.3-0.6,0.5-0.8c0.4-0.7,0.9-1.3,1.3-2c0.1-0.1,0.2-0.3,0.3-0.4c0.1-0.1,0.1-0.2,0.2-0.2
				c0.1-0.1,0.2-0.2,0.3-0.3c0.9-0.9,2-1.5,3.1-1.9c-1.2,0.4-2.2,1-3.1,2c0.4-0.4,0.8-0.8,1.3-1c-0.4,0.3-0.8,0.6-1.2,1
				c1.3-1.3,2.9-2,4.5-2.2c0,0,0.1,0,0.1,0c0.2,0,0.4,0,0.6,0c0.1,0,0.2,0,0.3,0c0.1,0,0.1,0,0.2,0c0.6,0.1,1.1,0.2,1.7,0.4
				c0,0,0.1,0,0.1,0c0.9,0.4,1.7,0.9,2.4,1.6c0.2,0.1,0.3,0.3,0.5,0.5c0.2,0.1,0.3,0.2,0.4,0.4c0.7,0.9,1.2,1.8,1.7,2.7
				c9.7,16.8,19.5,33.6,29.1,50.4c0.2,0.2,0.3,0.5,0.5,0.8c3,5.4,6.1,10.8,9.2,16.1c0.5,1,1,1.9,1.3,2.7c0,0.2,0.1,0.4,0.2,0.6
				c0.1,0.2,0.2,0.5,0.3,0.7c0.6,2.4,0.2,4.3-1.5,6.1c-0.2,0.2-0.5,0.5-0.8,0.8c-0.8,0.7-1.8,1.4-3.1,2.2c0,0-0.1,0-0.1,0.1
				c2.5,4.4,5.1,8.8,7.6,13.2c1.5,2.7,3.1,5.5,4.7,8.2c2.5,4.6,2.6,7.6-0.6,10.5l-0.1,0.1c-0.8,0.7-1.7,1.3-2.8,2c0,0-0.1,0-0.1,0.1
				c3.4,5.6,6.7,11.2,10,16.9c1.2,1.8,2.3,3.7,3.4,5.6c0,1.4,0,2.8,0,4.2c-0.2,0.4-0.4,0.8-0.6,1.1c-0.2,0.3-0.4,0.6-0.6,0.9
				c-0.2,0.2-0.3,0.4-0.5,0.6c-0.2,0.2-0.4,0.4-0.6,0.6c-0.2,0.2-0.3,0.3-0.5,0.4c-0.1,0.1-0.2,0.2-0.4,0.3
				c-0.2,0.2-0.4,0.3-0.6,0.4c-0.8,0.5-1.8,0.8-2.8,1h-0.1c-1,0.2-2,0.2-3.1,0.2c-14.4-0.1-28.8-0.1-43.1-0.1c-1.3,0-2.6,0-4.1,0
				v0.1h-0.1v0.1c0,0,0,0.1,0,0.1c0,8.8,0,17.3,0,26.5v0.1c2.6,0,5.3-0.1,7.9,0c5,0.1,8.2,2.9,8.3,7.2c0,0.2,0,0.5,0,0.8
				c-0.1,0.8-0.3,1.5-0.6,2.2c0,0.1,0,0.1-0.1,0.2c0,0.1-0.1,0.1-0.1,0.1c0,0.1-0.1,0.3-0.1,0.4c0,0,0,0,0,0c0,0,0,0,0,0.1
				c-0.1,0.1-0.1,0.2-0.2,0.3c0,0,0.1-0.1,0.1-0.1c0,0.1-0.1,0.1-0.1,0.2l-0.1,0.1c-1.4,1.7-3.7,2.9-6.6,3.1c-0.4,0-0.9,0-1.3,0
				s-0.8,0-1.2,0c-0.1,0-0.2-0.1-0.3-0.1c-85.1,0-170.2,0-255.3,0c-1.7,0-3.3-0.1-4.9-0.4c-2.7-0.6-4.6-2.3-5.4-4.6
				c-0.1-0.2-0.2-0.4-0.2-0.6c0-0.1-0.1-0.1-0.1-0.2c0-0.2-0.1-0.4-0.1-0.6v-0.1c0,0,0-0.1,0-0.2s0-0.3,0-0.4c0,0,0-0.1,0-0.2
				c0-0.2,0-0.5,0-0.7c0.4-3.4,2.9-5.9,6.6-6.2c3-0.3,6.1-0.1,9.3-0.1v-0.1c0,0,0-0.1,0-0.2c0-9,0-17.5,0-26.6v-0.1
				c-1.4,0-2.6,0-3.9,0c-14.3,0-28.5,0-42.8,0c-0.9,0-1.7,0-2.5,0c-4.8-0.3-7.7-2.9-8-6.5c0-0.2,0-0.4,0-0.6c0-1.4,0.4-2.9,1.3-4.6
				c3.8-6.8,7.8-13.6,11.3-19.7c-1.8-2.6-4.3-4.6-4.6-7c-0.3-2.4,1.1-5.4,2.4-7.7c0.4-0.7,0.7-1.4,1.1-2c2.4-4.4,4.9-8.7,7.4-13
				c0.1-0.2,0.2-0.4,0.3-0.6c0.8-1.5,1.7-2.9,2.5-4.3c-0.2-0.4-0.3-0.7-0.5-0.8c-5.6-3.2-6.5-6.5-3.3-12.1
				c12.1-21,24.1-41.9,36.2-62.8c1.3-2.2,2.5-4.5,3.9-6.7c0.3-0.5,0.7-1,1-1.4C83.8,185.4,84,185.2,84.3,184.9z M52.3,288.6
				c0.2,0.1,0.4,0.3,0.6,0.4c0,0,0,0,0,0c0.2,0.1,0.4,0.3,0.6,0.4c2.6,1.8,3.9,3.6,4.1,5.8c0,0.3,0,0.7,0,1c-0.1,1.4-0.8,3-1.8,4.8
				c-3.6,6.3-7.3,12.7-11.2,19.4h0.1c0,0,0,0,0,0c-0.1,0-0.1,0.1-0.1,0.1h0.1c0.1,0,0.1-0.1,0.1-0.1c30,0.1,59.2,0.1,89,0.1h0.1
				c-3.7-6.4-7.2-12.5-10.7-18.5c-3.5-6.1-3.3-8.7,1.5-12.6l0.1-0.1c0.4-0.3,0.8-0.6,1.2-0.9c0,0,0.1,0,0.1-0.1c-0.6-1-1.1-2-1.7-3
				c-3.7-6.5-7.5-12.9-11.2-19.4c-1.8-3.2-1.9-5.9-0.2-8.2c0.1-0.1,0.2-0.2,0.2-0.3c0.8-0.9,1.8-1.7,3.2-2.5
				c0.3-0.1,0.5-0.4,0.7-0.6c0,0,0.1,0,0.1-0.1c0.1-0.1,0.2-0.2,0.3-0.2l0.1-0.1c-9.4-16.3-18.7-32.4-28.3-49l-0.1,0.1
				c-9.6,16.7-19,32.9-28.4,49.1c0,0,0,0,0,0v0.1c2.8,1.8,4.5,3.3,5.3,5c0.1,0.3,0.2,0.6,0.3,0.8c0-0.2-0.1-0.3-0.1-0.5
				c0.1,0.3,0.2,0.5,0.2,0.8c0,0.1,0,0.1,0,0.2c0,0.1,0,0.3,0.1,0.5c0,0,0,0.1,0,0.3c0,1.8-0.8,3.8-2.4,6.5
				c-2.6,4.4-5.1,8.9-7.7,13.3c-1.4,2.4-2.8,4.9-4.2,7.4C52.3,288.5,52.3,288.5,52.3,288.6L52.3,288.6z M311.2,361.9
				c0-8.9,0-17.6,0-26.2c-14.2,0-28.2,0-42.3,0c0,8.8,0,17.4,0,26.2C283.3,361.9,297.3,361.9,311.2,361.9z M253.9,361.9
				c0-8.9,0-17.5,0-26.3c-14.2,0-28.1,0-42.3,0c0,8.8,0,17.5,0,26.3C225.8,361.9,239.8,361.9,253.9,361.9z M139.2,361.9
				c0-8.9,0-17.5,0-26.2c-14.3,0-28.3,0-42.4,0c0,8.9,0,17.5,0,26.2C111.1,361.9,125.1,361.9,139.2,361.9z"/>
			<path class="st2" d="M85.5,183.9c3.4-2.2,7.6-1.2,10.3,3c1.6,2.6,3,5.3,4.6,7.9c1.5,2.6,3,5.2,4.8,8.2l-0.1,0.1
				c-1.7-3-3.3-5.6-4.8-8.2c-1.5-2.6-2.9-5.3-4.6-7.9C93,182.9,88.9,181.8,85.5,183.9z"/>
			<path class="st2" d="M82.1,217.5c2.3-4.1,4.7-8.2,7.2-12.4C86.9,209.3,84.5,213.4,82.1,217.5z"/>
			<path class="st2" d="M107.8,32.7c-10.5,0.6-18.7,4.5-24.6,11.9c5.9-7.3,14.2-11.4,24.4-11.9C107.7,32.7,107.7,32.7,107.8,32.7z"
				/>
			<path class="st2" d="M66.6,260.9c0,0,0,0.1,0,0.1c0-0.2,0-0.3-0.1-0.5C66.6,260.7,66.6,260.8,66.6,260.9z"/>
			<path class="st2" d="M66.5,260.5c0-0.1,0-0.1,0-0.2C66.5,260.4,66.5,260.5,66.5,260.5z"/>
			<path class="st2" d="M66.2,259.5c0.1,0.2,0.1,0.3,0.1,0.5c-0.1-0.3-0.2-0.6-0.3-0.8C66.1,259.3,66.2,259.4,66.2,259.5
				C66.2,259.5,66.2,259.5,66.2,259.5z"/>
			<path class="st2" d="M71.7,376.4c-2.8-0.6-4.7-2.2-5.4-4.5c-0.1-0.3-0.2-0.6-0.3-1c0,0.1,0.1,0.1,0.1,0.2
				c0.1,0.2,0.1,0.4,0.2,0.6c0.8,2.3,2.7,4,5.4,4.6c1.6,0.3,3.2,0.4,4.9,0.4c85.1,0,170.2,0,255.3,0c0.1,0,0.2,0.1,0.3,0.1
				c-0.1,0-0.2,0-0.3,0c-85.1,0-170.2,0-255.3,0C75,376.8,73.3,376.8,71.7,376.4z"/>
			<path class="st2" d="M66.1,371.1c0.1,0.2,0.2,0.4,0.2,0.6C66.2,371.5,66.2,371.3,66.1,371.1z"/>
			<path class="st2" d="M65.9,369.1c0.1-3.7,2.7-6.6,6.6-6.9c3-0.3,6-0.1,9.3-0.1c-3.2,0.1-6.3-0.1-9.3,0.2c-3.7,0.3-6.3,3-6.6,6.4
				c0,0.2,0,0.3,0,0.5V369.1z"/>
			<path class="st2" d="M60.9,254.1c3.4-5.8,6.8-11.6,10.2-17.5C67.7,242.5,64.3,248.3,60.9,254.1C60.9,254.1,60.9,254.1,60.9,254.1
				z"/>
			<path class="st2" d="M62.7,255.4c1.5,1.1,2.6,2.2,3.2,3.3c0.1,0.1,0.1,0.2,0.2,0.3c0.1,0.1,0.1,0.3,0.2,0.4
				c0-0.1-0.1-0.2-0.2-0.3C65.5,257.9,64.4,256.8,62.7,255.4z"/>
			<path class="st2" d="M60.9,254.1c4.7,2.9,6.3,5.2,5.5,8.7c0.1-0.5,0.2-1,0.2-1.4c0,0,0-0.1,0-0.1c0-0.2,0-0.2,0-0.3
				c0,0,0-0.1,0-0.1c0-0.1,0-0.2-0.1-0.4c0-0.1,0-0.1,0-0.2c-0.1-0.4-0.2-0.8-0.4-1.2c0-0.1-0.1-0.2-0.2-0.3
				C65.1,257.2,63.5,255.8,60.9,254.1C60.9,254.2,60.9,254.1,60.9,254.1z"/>
			<path class="st2" d="M60.9,254.2c0.2,0.2,0.5,0.3,0.7,0.5C61.4,254.5,61.1,254.4,60.9,254.2C60.9,254.2,60.9,254.2,60.9,254.2z"
				/>
			<path class="st2" d="M60.9,254.2c2.5,1.7,4.2,3.1,5,4.6c-0.6-1.1-1.7-2.2-3.2-3.3c-0.3-0.3-0.7-0.5-1.1-0.8
				C61.4,254.5,61.1,254.3,60.9,254.2z"/>
			<path class="st2" d="M56.3,281.6c0.1-0.2,0.2-0.4,0.3-0.5c2.6-4.4,5.1-8.9,7.7-13.3c0.9-1.7,1.6-3.1,2-4.4
				c-0.4,1.3-1.1,2.8-2.1,4.6c-2.6,4.4-5.1,8.9-7.7,13.3C56.4,281.4,56.4,281.5,56.3,281.6z"/>
			<path class="st0" d="M55.3,371.4c0,0.1-0.1,0.2-0.1,0.3c0,0,0-0.1,0-0.1C55.3,371.5,55.3,371.5,55.3,371.4z"/>
			<path class="st0" d="M55.1,371.9c0-0.1,0-0.1,0.1-0.2c-0.3,1-0.9,1.9-1.5,2.6c0.1-0.1,0.2-0.3,0.3-0.4c0.4-0.5,0.7-1,0.9-1.5
				C55,372.2,55.1,372,55.1,371.9z"/>
			<path class="st0" d="M53.6,374.3c0.1-0.1,0.2-0.3,0.4-0.4C53.9,374,53.8,374.2,53.6,374.3z"/>
			<path class="st0" d="M53.4,374.5c0.1-0.1,0.1-0.1,0.2-0.2C53.6,374.4,53.5,374.5,53.4,374.5z"/>
			<path class="st2" d="M53.5,289.4c2.7,1.8,3.9,3.6,4.1,5.8C57.4,293,56.1,291.2,53.5,289.4z"/>
			<path class="st2" d="M52.9,289c0.2,0.1,0.4,0.3,0.6,0.4C53.3,289.3,53.1,289.1,52.9,289z"/>
			<path class="st0" d="M53.5,374.5c-0.1,0.1-0.3,0.3-0.4,0.4c0.2-0.2,0.2-0.2,0.3-0.3C53.3,374.6,53.4,374.6,53.5,374.5z"/>
			<path class="st1" d="M53.2,374.8C53.2,374.7,53.2,374.7,53.2,374.8C53.2,374.7,53.2,374.7,53.2,374.8z"/>
			<path class="st3" d="M31.9,376.8c-1.3-0.1-2.5-0.5-3.5-1c-0.2-0.1-0.3-0.2-0.5-0.3c-1.9-1.4-3-3.5-3-5.7c0-0.1,0-0.2,0-0.4
				c0.1-1.8,0.8-3.3,1.9-4.5c0.1-0.1,0.2-0.2,0.4-0.4c1.3-1.2,3.2-1.9,5.4-2c2.6-0.1,5.1,0,7.7,0c2.6,0,5.1-0.1,7.7,0
				c2.5,0.2,4.5,1.2,5.8,2.7c0,0.1,0.2,0.3,0.3,0.5c0.7,0.9,1.2,2.1,1.3,3.3c0,0.2,0,0.4,0,0.6c0,0.4,0,0.7,0,1c0,0.1,0,0.2,0,0.3
				v0.1c0,0.2-0.1,0.5-0.2,0.7c0,0.1-0.1,0.2-0.1,0.3c-0.1,0.2-0.1,0.3-0.2,0.5c-0.3,0.5-0.6,1.1-1,1.5c0.6-0.7,1-1.6,1.2-2.5
				c-0.4,1.2-1.1,2.4-2,3.2c0,0,0,0,0,0c-1.1,1-2.4,1.7-4.1,1.9c0.7-0.1,1.4-0.3,2-0.5c-0.2,0.1-0.4,0.2-0.7,0.2
				c-0.2,0.1-0.5,0.1-0.7,0.2c-0.2,0-0.4,0.1-0.5,0.1c-0.3,0.1-0.5,0.1-0.8,0.1c-1.5,0.1-3,0.2-4.5,0.2c-4,0.1-8,0-11.9-0.1
				c2.8,0.2,5.6,0.2,8.5,0.2c-2.8,0-5.7-0.1-8.5-0.1c-1.1-0.1-2.1-0.4-3-0.8C29.9,376.5,30.9,376.8,31.9,376.8z"/>
			<path class="st1" d="M53.2,374.8C53.2,374.8,53.2,374.8,53.2,374.8C53.2,374.8,53.2,374.8,53.2,374.8z"/>
			<path class="st0" d="M53.2,374.6l-0.1,0.1C53.1,374.8,53.1,374.7,53.2,374.6C53.2,374.7,53.2,374.6,53.2,374.6z"/>
			<path class="st1" d="M53.1,374.8C53.1,374.8,53.2,374.8,53.1,374.8C53.2,374.8,53.1,374.8,53.1,374.8z"/>
			<path class="st1" d="M52.7,375.2c0.1-0.1,0.3-0.2,0.4-0.3C53,374.9,52.9,375,52.7,375.2L52.7,375.2z"/>
			<path class="st1" d="M53.4,374.5c0,0.1-0.1,0.1-0.2,0.2c0,0-0.1,0.1-0.1,0.1c0,0,0,0,0,0s0,0,0,0c-0.1,0.1-0.3,0.2-0.4,0.3
				c-0.1,0-0.1,0.1-0.2,0.1c0.1-0.1,0.3-0.3,0.5-0.5c0,0,0,0,0,0c0,0,0,0,0,0l0.1-0.1c1-0.9,1.7-2,2-3.2c-0.2,0.9-0.7,1.8-1.2,2.5
				c-0.1,0.1-0.2,0.3-0.4,0.4C53.6,374.4,53.5,374.4,53.4,374.5z"/>
			<path class="st0" d="M53,374.8c-0.2,0.2-0.4,0.3-0.5,0.5c0.1-0.1,0.2-0.2,0.3-0.3C52.8,375,52.9,374.9,53,374.8z"/>
			<path class="st2" d="M52.4,288.5c5.8,3.6,6.7,7,3.5,12.5c1-1.8,1.6-3.4,1.7-4.8c0-0.3,0-0.7,0-1c-0.2-2.2-1.4-4-4.1-5.8
				c-0.2-0.1-0.4-0.3-0.6-0.4c0,0,0,0,0,0c-0.2-0.1-0.4-0.3-0.6-0.4c1.3-2.4,2.7-4.8,4-7C55,284,53.7,286.3,52.4,288.5z"/>
			<path class="st1" d="M52.5,375.3c0.1,0,0.1-0.1,0.2-0.1l-0.3,0.2h0c0,0,0,0,0,0c0,0,0,0-0.1,0C52.4,375.4,52.4,375.4,52.5,375.3z
				"/>
			<path class="st1" d="M52.3,375.5C52.3,375.5,52.3,375.5,52.3,375.5C52.3,375.5,52.3,375.5,52.3,375.5z"/>
			<path class="st1" d="M52.3,375.5c-0.1,0-0.1,0.1-0.2,0.1C52.1,375.6,52.2,375.5,52.3,375.5z"/>
			<path class="st0" d="M52,375.6L52,375.6C52,375.6,52,375.6,52,375.6z"/>
			<path class="st0" d="M51.7,375.8c0.1-0.1,0.2-0.1,0.3-0.2C51.8,375.7,51.8,375.8,51.7,375.8z"/>
			<path class="st0" d="M52.5,375.5c-0.8,0.5-1.8,0.9-2.8,1.1c0.8-0.2,1.6-0.4,2.2-0.9c0.4-0.2,0.7-0.4,1-0.7
				c-0.1,0.1-0.2,0.2-0.3,0.3C52.6,375.4,52.5,375.4,52.5,375.5z"/>
			<path class="st0" d="M51.9,375.8c-0.3,0.2-0.6,0.3-1,0.4c0.1-0.1,0.3-0.1,0.4-0.2c0,0,0,0,0,0c0,0,0,0,0.1,0c0,0,0.1,0,0.1-0.1
				c0,0,0,0,0,0c0,0,0.1,0,0.2-0.1C51.8,375.8,51.8,375.7,51.9,375.8l0.2-0.1c0,0,0,0,0,0c0.1,0,0.1-0.1,0.2-0.1c0,0,0,0,0,0
				c0,0,0,0,0.1,0C52.2,375.5,52,375.7,51.9,375.8z"/>
			<path class="st0" d="M51.5,375.9C51.5,375.9,51.5,375.9,51.5,375.9C51.4,375.9,51.4,375.9,51.5,375.9
				C51.5,375.9,51.5,375.9,51.5,375.9z"/>
			<path class="st0" d="M51.4,375.9C51.4,375.9,51.4,375.9,51.4,375.9C51.4,376,51.4,376,51.4,375.9C51.4,376,51.4,376,51.4,375.9z"
				/>
			<path class="st0" d="M51.4,375.9C51.4,376,51.4,376,51.4,375.9c-0.1,0.1-0.1,0.1-0.1,0.1C51.3,376,51.4,376,51.4,375.9z"/>
			<path class="st1" d="M49.1,376.6c1.6-0.3,3-1,4.1-1.9c0,0-0.1,0.1-0.1,0.1c0,0,0,0,0,0c0,0,0,0,0,0c-0.1,0.1-0.2,0.1-0.2,0.2
				c-0.1,0.1-0.2,0.2-0.3,0.3c-0.1,0.1-0.1,0.1-0.2,0.2c0,0,0,0,0,0c-0.1,0-0.1,0.1-0.2,0.1c0,0,0,0,0,0c0,0,0,0-0.1,0.1
				c-0.1,0-0.2,0.1-0.3,0.2c-0.1,0-0.1,0.1-0.2,0.1c0,0,0,0-0.1,0c0,0-0.1,0-0.1,0.1c-0.1,0-0.1,0-0.2,0.1
				C50.5,376.3,49.8,376.5,49.1,376.6z"/>
			<path class="st0" d="M51.3,376C51.3,376,51.3,376,51.3,376c-0.1,0-0.1,0.1-0.2,0.1C51.2,376,51.2,376,51.3,376z"/>
			<path class="st0" d="M50.4,376.3c0.1,0,0.2,0,0.2-0.1c-0.5,0.2-0.9,0.3-1.5,0.3c0.2,0,0.4-0.1,0.5-0.1
				C50,376.5,50.2,376.4,50.4,376.3z"/>
			<path class="st0" d="M49.3,376.7c-0.3,0.1-0.5,0.1-0.8,0.1c-1.5,0.1-3,0.2-4.5,0.2c0,0-0.1,0-0.1,0c1.5-0.1,3-0.1,4.5-0.2
				C48.7,376.8,49,376.7,49.3,376.7c0,0,0.2-0.1,0.4-0.1C49.5,376.7,49.4,376.7,49.3,376.7z"/>
			<path class="st2" d="M44.7,320.4C44.7,320.4,44.8,320.4,44.7,320.4C44.7,320.4,44.7,320.5,44.7,320.4l-0.1,0.1
				C44.7,320.5,44.7,320.5,44.7,320.4z"/>
			<path class="st2" d="M44.8,320.4C44.8,320.4,44.7,320.4,44.8,320.4C44.7,320.4,44.7,320.4,44.8,320.4c1.8-3.4,3.7-6.6,8.3-14.6
				C50.3,310.6,47.6,315.4,44.8,320.4z"/>
			<path class="st2" d="M44.8,320.4c0,0,0,0.1-0.1,0.1C44.7,320.5,44.7,320.4,44.8,320.4z"/>
			<path class="st2" d="M44.7,320.4c0,0,0,0.1-0.1,0.1C44.6,320.5,44.6,320.4,44.7,320.4z"/>
			<path class="st0" d="M43.9,377c-1.1,0-2.3,0-3.4,0c-2.9,0-5.7-0.1-8.5-0.2c3.9,0.1,7.9,0.2,11.9,0.1c1.5,0,3-0.1,4.5-0.2
				c0.3,0,0.5,0,0.8-0.1c0.5,0,1-0.2,1.5-0.3c0.1,0,0.1,0,0.2-0.1c0.3-0.1,0.7-0.3,1-0.4c-0.7,0.4-1.4,0.7-2.2,0.9
				c-0.2,0-0.3,0.1-0.5,0.1c-0.2,0-0.5,0.1-0.8,0.1C46.9,376.9,45.4,376.9,43.9,377z"/>
			<path class="st1" d="M32.1,362.1c-0.1,0-0.2,0-0.3,0C31.9,362.1,32,362.1,32.1,362.1z"/>
			<path class="st1" d="M31.5,362.2c-0.2,0-0.4,0.1-0.6,0.1C31.1,362.3,31.3,362.3,31.5,362.2z"/>
			<path class="st1" d="M32.5,362.2c-0.7,0.1-1.4,0.1-2.1,0.3c0.2,0,0.4-0.1,0.5-0.1c0.2,0,0.4-0.1,0.6-0.1c0.1,0,0.2,0,0.3,0
				c0.1,0,0.2,0,0.3,0c0.2,0,0.4,0,0.6,0c2.6-0.1,5,0,7.6,0c2.6,0,5.1-0.1,7.7,0c2.4,0.2,4.4,1.2,5.7,2.8c-1.3-1.5-3.4-2.5-5.8-2.7
				c-2.6-0.1-5.1,0-7.7,0C37.6,362.2,35.1,362.1,32.5,362.2z"/>
			<path class="st1" d="M30.4,362.5C30.4,362.5,30.4,362.5,30.4,362.5c-0.1,0-0.2,0.1-0.4,0.1C30.1,362.5,30.3,362.5,30.4,362.5z"/>
			<path class="st1" d="M30,362.6c0.1,0,0.2-0.1,0.3-0.1c-0.2,0.1-0.4,0.1-0.5,0.2C29.9,362.7,30,362.6,30,362.6L30,362.6z"/>
			<path class="st1" d="M29.8,362.6c0.2-0.1,0.4-0.1,0.5-0.2c0.5-0.1,1-0.2,1.5-0.2c-0.1,0-0.2,0-0.3,0c-0.2,0-0.4,0.1-0.6,0.1
				c-0.2,0-0.4,0.1-0.5,0.1c-0.1,0-0.2,0-0.4,0.1h0c-0.2,0-0.3,0.1-0.5,0.1C29.7,362.7,29.7,362.7,29.8,362.6z"/>
			<path class="st0" d="M31.9,376.8c-1,0-2-0.3-2.9-0.7c-0.2-0.1-0.4-0.2-0.6-0.3c0,0-0.1,0-0.1-0.1
				C29.4,376.3,30.6,376.7,31.9,376.8z"/>
			<path class="st1" d="M29.6,362.8c-0.1,0.1-0.3,0.1-0.5,0.2C29.3,362.9,29.4,362.8,29.6,362.8z"/>
			<path class="st1" d="M28.8,363.1c-0.6,0.3-1.2,0.7-1.7,1.1C27.6,363.7,28.2,363.4,28.8,363.1z"/>
			<path class="st0" d="M26.6,364.8L26.6,364.8c-1,1.1-1.7,2.6-1.8,4.4C24.9,367.4,25.5,365.9,26.6,364.8z"/>
			<path class="st2" d="M32.6,335.5c-4.7-0.2-7.6-2.8-8-6.4c0-0.1,0-0.1,0-0.2c0.3,3.6,3.2,6.2,8,6.5c0.8,0,1.6,0,2.5,0
				c14.3,0,28.5,0,42.8,0c1.3,0,2.5,0,3.9,0v0.1c-1.4,0-2.6,0-3.9,0c-14.3,0-28.5,0-42.8,0C34.3,335.5,33.5,335.5,32.6,335.5z"/>
			<path class="st0" d="M24.8,369.6c0,2.3,1.2,4.5,3.1,5.8c0.2,0.1,0.3,0.2,0.5,0.3c0,0,0.1,0,0.1,0.1
				C26.2,374.5,24.7,372.1,24.8,369.6z"/>
			<path class="st3" d="M192.2,76.5c-0.1-0.7-0.3-1.3-0.5-1.8C191.9,75.3,192,75.9,192.2,76.5z M174.2,51.2
				c-0.4-0.3-0.8-0.6-1.2-0.8C173.4,50.7,173.8,50.9,174.2,51.2z M191.1,72.8c-2.8-8.4-8.5-15.8-15.7-20.9
				C182.6,57.1,188.2,64.4,191.1,72.8z M176.9,76.9c0.2,0.5,0.3,0.8,0.5,1.2C177.2,77.7,177.1,77.3,176.9,76.9z M83.2,44.6
				c6-7.3,14.2-11.3,24.6-11.9c-0.1,0-0.1,0-0.2,0C97.3,33.2,89,37.2,83.2,44.6z M82.6,45.4c-1.7,2.2-3.1,4.6-4.4,7.3
				c-2.2,4.7-5.2,6.7-10.4,6.4C66.9,59,66,59,65,59.1c-0.7,0-1.4,0.1-2,0.2c-4.4,0.5-8.6,2.2-12.3,5.1c-4.1,2.9-7.1,6.6-9,11.3
				c-0.5,1.1-0.8,2.2-1.2,3.4c45.9-0.2,91.2-0.2,137.2-0.2c-0.1-0.2-0.2-0.5-0.3-0.7c-0.2-0.5-0.3-0.9-0.5-1.3c0,0,0-0.1-0.1-0.1
				c-0.4-1-0.7-1.9-1.2-2.7c-5.3-9.6-13.3-14.7-24-14.9c-0.8,0-1.5,0-2.3,0c-0.1,0-0.2,0-0.3,0c-0.2,0-0.4,0-0.6,0
				c-3.6-0.2-6.3-1.6-7.8-5.2c-0.8-1.8-1.7-3.6-2.7-5.3c-6.6-10-15.7-15.6-27.3-15.9c-0.6,0-1.2,0-1.9,0c-0.4,0-0.7,0-1.1,0
				C97,33.3,88.5,37.6,82.6,45.4z M24.7,86.2c0-0.3,0-0.7,0-1.1h0.1c0-0.6,0-1.3,0.1-2.1C27,61.9,42.7,46.3,63.6,44.3
				c1.2-0.1,2.7-0.9,3.3-1.9c7.5-12.1,17.7-19.8,30.8-22.9c0.9-0.2,1.8-0.4,2.7-0.6c1.5-0.3,3-0.5,4.6-0.7h0.1c0.1,0,0.1,0,0.2-0.1
				c0.1,0,0.1,0,0.1,0c0.2-0.1,0.4-0.2,0.6-0.3c2.1,0,4.1,0,6.2,0c6.2,1.8,12.7,3.1,18.6,5.6c8.6,3.7,15,10.2,19.8,18.2
				c1,1.7,2.1,2.7,4.3,2.9c4.3,0.3,8.4,1.3,12.3,2.9c2.1,0.8,4.1,1.8,6,3c0.5,0.3,1.1,0.7,1.6,1c0.3,0.2,0.5,0.4,0.8,0.5
				c7.2,5.1,12.8,12.5,15.7,20.9c0.2,0.6,0.4,1.2,0.6,1.8c0.2,0.6,0.3,1.2,0.5,1.9c0.1,0.3,0.1,0.6,0.2,0.9c0,0.7,0.1,1.3,0.2,2
				c-0.1-0.7-0.2-1.3-0.4-1.9c0.1,0.6,0.3,1.3,0.4,1.9c0.3,1.9,0.5,3.8,0.5,5.8c0,4.6-2,7.3-6.1,8.2c-0.3,0.1-0.6,0.1-0.9,0.1
				c-0.7,0.1-1.4,0.1-2.2,0.1c-25.7,0-51.4,0-77.1,0c-24.2,0-48.4,0-72.6,0c-1.1,0-2-0.1-2.9-0.2c-4-0.6-6.2-2.6-6.7-6.2
				C24.8,86.9,24.7,86.6,24.7,86.2z"/>
			<path class="st2" d="M24.8,83c-0.1,0.8-0.1,1.5-0.1,2.1h-0.1C24.6,84.4,24.6,83.7,24.8,83c2-21.1,17.7-36.7,38.6-38.7
				c1.2-0.1,2.7-1,3.3-1.9c8.8-14.3,21.4-22.5,38.1-24.2c0.1,0,0.1,0,0.2,0c-1.6,0.2-3.1,0.4-4.6,0.7c-0.9,0.2-1.8,0.4-2.7,0.6
				c-13.2,3.2-23.4,10.9-30.9,22.9c-0.6,1-2.1,1.8-3.3,1.9C42.6,46.3,26.9,61.9,24.8,83z"/>
			<path class="st1" d="M24.6,86.2c0.1,0.3,0.1,0.6,0.1,1C24.7,86.9,24.6,86.5,24.6,86.2z"/>
		</g>
		<g>
		</g>
	</g>
</g>
</svg>
