<?xml version="1.0" encoding="utf-8"?>
<!-- Generator: Adobe Illustrator 25.4.1, SVG Export Plug-In . SVG Version: 6.00 Build 0)  -->
<svg version="1.1" id="Capa_1" xmlns="http://www.w3.org/2000/svg" xmlns:xlink="http://www.w3.org/1999/xlink" x="0px" y="0px"
	 viewBox="0 0 400 400" style="enable-background:new 0 0 400 400;" xml:space="preserve">
<style type="text/css">
	.st0{fill:#54E548;}
</style>
<g>
	<g id="XMLID_00000089575194853106262480000016985977222344993159_">
		<g>
			<path class="st0" d="M364,152.7c2.7,19.1-1.5,38.1-12.5,56.5c-8.9,14.9-21.6,26.6-37.7,34.5c-1.5,0.8-1.9,1.1-1.9,2.7
				c1,43.7-14.5,80.6-46.2,109.6c-26.7,24.5-59.1,36.9-96.2,36.9c-1.9,0-3.8,0-5.8-0.1C98.3,390.5,40.5,340,29.2,275.3
				c-1.7-9.7-2.1-19.6-1.4-29.5c0.1-0.9,0.2-1.8,0.2-2.8c1.2-11.9,4.1-24.1,8.8-36.5c0.5-1.4,1-2.7,1.6-4.1c0.3-0.6,0.5-1.1,0.7-1.7
				c0.2-0.6,0.5-1.2,0.7-1.8c15.6-36.8,36.7-70.1,53.3-95c21-31.5,44.1-62.5,68.5-92c1.1-1.3,2.4-2.4,3.6-3.4
				c0.7-0.6,1.3-1.1,1.9-1.7l0.4-0.4h4.2l0.4,0.4c0.4,0.3,0.8,0.6,1.2,1c1.1,0.9,2.2,1.8,3.1,3l3.6,4.6c6.3,8.1,12.5,16.1,18.8,24.2
				c6.3,8.2,12.7,16.3,19,24.5l3.3,4.3c0.3,0.3,0.5,0.7,0.8,1c0.3-0.4,0.5-0.8,0.8-1.1l9.3-12.6c10.3-14,21-28.5,31.6-42.6
				c1.3-1.7,2.9-3.1,4.4-4.5c0.6-0.5,1.2-1,1.7-1.6l0.4-0.4h4.9l0.4,0.3c0.4,0.3,0.7,0.5,1.1,0.8c0.8,0.6,1.6,1.2,2.4,2
				c24.3,30.2,52,66.7,72.6,107.8C356.9,128.1,362.1,139.8,364,152.7z M327.8,213.9c15.6-16.8,22.5-36.2,20.4-57.5
				c-1.1-11.1-5.9-21.5-10.6-31.2c-15.2-30.7-34.5-57.8-51.5-80.3c-1.1-1.5-2.3-3-3.5-4.6c-3.2-4.1-6.5-8.3-9.8-12.4
				c-0.1,0.1-0.2,0.2-0.2,0.3c-4.4,5.9-8.8,12-13.1,18c-8.6,11.8-17.6,24.1-26.4,36c-0.8,1.1-0.8,1.6,0.3,3.2
				c3.1,4.8,6.3,9.5,9.5,14.3c8.9,13.4,18.1,27.3,26.7,41.2c9.8,16,17.2,29.6,23.4,42.7c7.2,15.3,12.6,29.8,16.4,44.4
				c3.8-2,7.3-4.2,10.5-6.8c0.8-0.6,1.6-1.3,2.4-2C324.1,217.6,326,215.8,327.8,213.9z M281.3,310.4c10.6-19.1,15.7-38.8,15.2-58.4
				c0-0.4,0-0.8,0-1.1c0-0.4-0.1-0.9-0.1-1.3c-0.2-4.9-0.7-9.6-1.6-14.2c-0.7-4.2-1.8-8.6-3.1-13c0-0.1-0.1-0.2-0.1-0.3l0-0.1
				c-0.3-0.9-0.5-1.8-0.8-2.7c-0.3-1-0.6-1.9-1-2.9c-2.7-7.8-6.2-16-11.4-26.6c-1-2.1-2-4.2-3.1-6.3c-15.5-30.3-34.5-60.7-61.7-98.4
				c-3.2-4.6-6.6-9.1-9.8-13.5c-6.8-9.1-13.8-18.3-20.7-27.2l-5.4-7c-1.4-1.9-2.8-3.7-4.2-5.6c-1.2-1.5-2.3-3-3.5-4.6
				c-0.4,0.5-0.8,0.9-1.3,1.4c-27.1,33.8-50.3,65.7-71,97.5c-14.8,22.9-31.7,50.5-44.5,81.3c-4,9.7-6.7,18.7-8.3,27.7l-0.3,1.5
				c-2,12.2-2,23.8,0,35.6c0.8,4.1,1.6,7.7,2.5,11.1c0.5,1.7,1,3.6,1.6,5.3l0.9,2.7c7,20.2,19.3,38.5,35.7,53.1
				c16.2,14.4,35.8,24.5,56.5,29.3c2.5,0.6,5.1,1,8.1,1.6c1.7,0.3,3.6,0.6,5.4,0.8c11.2,1.3,22.4,1,33.4-0.8
				c2.6-0.4,5.1-0.9,7.6-1.4c1.3-0.2,2.4-0.5,3.6-0.8c5.5-1.3,10.9-3,16-4.9c0.9-0.4,1.8-0.7,2.8-1.1c25.9-10.5,46.6-29,61.5-55
				l0.1-0.1C280.7,311.4,281,310.9,281.3,310.4z"/>
			<path class="st0" d="M246.5,268.9c6.6,6.6,10.2,15.5,10.2,25c0,3.1-0.4,6.3-1.4,9.7l-0.1,0.3c-0.1,0.4-0.2,0.7-0.3,1
				c-4.4,13.1-16,22.5-29.7,23.9c-1.1,0.1-2,0.2-2.9,0.2h0h-0.9c-19.7,0-35.2-15.5-35.2-35.2c0-19.7,15.4-35.2,35.1-35.3
				c0.1,0,0.1,0,0.2,0C230.9,258.6,239.9,262.2,246.5,268.9z M240.6,294.6c0-0.4,0-0.8,0-1.2c-0.4-9.6-7.9-17.4-17.4-18.2l-0.3,0
				c-0.3,0-0.5,0-0.8,0h0c-0.4,0-0.8,0-1.2,0c-0.2,0-0.4,0-0.7,0c-3.2,0.2-6.3,1.1-9,2.7c-0.1,0.1-0.2,0.1-0.3,0.2
				c-0.1,0.1-0.3,0.2-0.4,0.2c-0.9,0.6-1.7,1.2-2.4,1.9c-0.1,0.1-0.1,0.1-0.2,0.2c-0.3,0.3-0.6,0.6-0.9,0.8
				c-0.2,0.3-0.5,0.5-0.7,0.8c-1.2,1.5-2.2,3.1-3,4.9l0,0.1c-0.1,0.2-0.2,0.5-0.3,0.7v0.4l-0.2,0.2l-0.1,0.3
				c-0.3,0.9-0.5,1.9-0.6,2.9c-0.1,0.2-0.1,0.4-0.1,0.6l0,0.1c0,0.1,0,0.3-0.1,0.5l0,0.1c0,0.2,0,0.4,0,0.5c0,0.2,0,0.3,0,0.4l0,0.2
				v0c-0.2,3.2,0.4,6.2,1.8,9l0.1,0.2c0.1,0.3,0.1,0.4,0.2,0.6c0.1,0.2,0.2,0.4,0.3,0.6c0.1,0.1,0.1,0.2,0.2,0.3l0.1,0.2
				c0,0.1,0.1,0.2,0.2,0.2c0.1,0.1,0.1,0.2,0.1,0.3c0.1,0.2,0.2,0.3,0.3,0.4c0.1,0.1,0.2,0.2,0.3,0.4l1.7,2l0.7,0.7
				c0.4,0.4,0.9,0.8,1.4,1.2c0.5,0.4,0.9,0.7,1.4,0.9l0.2,0.1c0.1,0.1,0.2,0.1,0.3,0.2c0.2,0.1,0.4,0.2,0.6,0.3l0.1,0.1
				c0.2,0.2,0.5,0.3,0.9,0.5c0.2,0.1,0.3,0.1,0.5,0.2l0.1,0c0.2,0.1,0.3,0.1,0.5,0.2l0.2,0.1c0.6,0.2,1.2,0.4,1.7,0.6l0.1,0
				c0,0,0,0,0.1,0c0.3,0,0.5,0.1,0.9,0.2h0l0.2,0.1c0.1,0,0.3,0,0.4,0.1c0.2,0,0.4,0.1,0.6,0.1l0.8,0.1c0.3,0,0.6,0,0.9,0.1l0.1,0
				l0.4,0.1c0.2,0,0.4,0,0.6,0h0.1c0.4,0,0.8,0,1.2,0c4.3-0.2,8.2-1.6,11.5-4.2c0.5-0.4,0.9-0.8,1.3-1.1l0.1-0.1
				c0.2-0.2,0.3-0.3,0.5-0.5c0.7-0.8,1.2-1.4,1.7-2.1c0.2-0.3,0.3-0.6,0.5-0.9c0.1-0.2,0.3-0.5,0.4-0.7c1.5-2.7,2.3-5.6,2.5-8.7
				L240.6,294.6z"/>
			<path class="st0" d="M244.4,175.1c3.3,3.1,3.5,7.4,0.5,11c-0.4,0.6-1,1.2-1.5,1.6c-0.1,0.2-0.3,0.3-0.4,0.4
				c-20.3,20.6-40.6,41.3-60.8,61.9c-20.4,20.8-40.8,41.5-61.1,62.2c-1.4,1.3-2.9,2.3-4.5,3.5c-0.8,0.5-1.6,1.1-2.4,1.8l-1,0.7
				l-0.9-0.8c-0.7-0.7-1.5-1.3-2.2-1.8c-1.4-1.1-2.7-2.2-3.6-3.5c-1.9-2.9-1.3-6.1,1.6-9c5.4-5.6,10.6-10.9,16-16.3
				c18-18.4,36.1-36.8,54.2-55.2c17.9-18.2,35.8-36.4,53.6-54.6c0.1-0.2,0.3-0.3,0.4-0.4c0.5-0.5,1-1,1.6-1.5
				c1.7-1.5,3.6-2.2,5.5-2.2C241,172.9,242.8,173.6,244.4,175.1z"/>
			<path class="st0" d="M162.2,198v1.9c0,0.6,0,1.3-0.1,1.9c-0.1,2.2-0.5,4.4-1.1,6.9c-0.2,0.7-0.4,1.4-0.6,1.8
				c-0.7,2.1-1.4,3.8-2.2,5.4c-0.2,0.4-0.4,0.8-0.6,1.2c-0.1,0.1-0.2,0.2-0.2,0.4c-0.2,0.3-0.3,0.5-0.5,0.8
				c-0.1,0.2-0.3,0.4-0.4,0.6c-2.3,3.6-5.2,6.7-8.7,9.2c-3.5,2.6-7.3,4.4-11.5,5.6l-0.1,0c-0.2,0-0.5,0.1-0.7,0.2
				c-0.3,0.1-0.6,0.1-0.8,0.2c-0.2,0.1-0.4,0.1-0.5,0.1l-0.4,0.1c-0.3,0.1-0.5,0.1-0.8,0.1c-0.3,0.1-0.6,0.1-0.9,0.2
				c-1.6,0.3-3.4,0.4-5.5,0.4c-9.5-0.1-18.3-3.8-24.9-10.4c-6.6-6.7-10.1-15.6-10.1-25.1v-0.1c0.2-4.6,1.1-8.9,2.7-13
				c2.4-6,6.4-11.1,11.5-15c0.4-0.3,0.7-0.5,1.1-0.8c5.9-4.1,12.9-6.3,20.3-6.3c0.1,0,0.2,0,0.2,0C146.2,164.5,161.2,179,162.2,198z
				 M146.4,199.9c0-0.4,0-0.8,0-1.1c-0.4-9.7-8.7-18-18.4-18.4h-2c-3.7,0.2-7.2,1.4-10.2,3.6c-0.5,0.3-0.9,0.7-1.4,1.1
				c-4.2,3.6-6.6,8.9-6.7,14.4c-0.1,3.3,0.7,6.4,2.2,9.3c0.1,0.2,0.2,0.4,0.3,0.5c0,0.1,0.1,0.1,0.1,0.2l0,0l0.1,0.2
				c3.5,5.8,9.7,9.3,16.6,9.3c3,0,5.9-0.7,8.3-1.9c4.3-2.1,7.7-5.5,9.5-9.8c0.5-1,0.8-2,1.1-3.1l0.1-0.4
				C146.2,202.6,146.4,201.2,146.4,199.9z"/>
		</g>
		<g>
		</g>
	</g>
</g>
</svg>
