<?xml version="1.0" encoding="utf-8"?>
<!-- Generator: Adobe Illustrator 25.4.1, SVG Export Plug-In . SVG Version: 6.00 Build 0)  -->
<svg version="1.1" id="Capa_1" xmlns="http://www.w3.org/2000/svg" xmlns:xlink="http://www.w3.org/1999/xlink" x="0px" y="0px"
	 viewBox="0 0 400 400" style="enable-background:new 0 0 400 400;" xml:space="preserve">
<style type="text/css">
	.st0{fill:#3AAA35;}
</style>
<g>
	<g id="XMLID_00000110440961689065117500000014447531691768058807_">
		<g>
			<path class="st0" d="M389.4,307.7c0,2.1,0,4.3,0,6.4c-2.5,3.1-4.7,6.4-7.5,9.2c-17.6,17.7-35.2,35.3-53,52.8
				c-2.5,2.4-5.7,4.1-8.5,6.1c-2.3-0.2-4.2-0.2-6-0.2c-3.1-2.5-6.5-4.7-9.2-7.5c-26.5-26.3-52.8-52.6-79.2-79
				c-7.4-7.4-7.4-13.5,0.1-21c3.5-3.5,7-7,10.5-10.5c-2.9-2.9-5.5-5.6-8.4-8.5c-4.7,4.7-9.3,9.4-14,14.1
				c-9.5,9.5-16.2,10.4-27.3,3.9c-0.6,6.6-0.8,13.5-1.9,20.2c-1.4,8.5-5.3,16.1-10.5,23c-5.1,6.7-13,7.4-19.1,1.5
				c-6.9-6.7-13.6-13.5-20.5-20.5c-4.6,4.6-9.1,9-13.4,13.5c-0.7,0.7-0.9,1.9-1.1,2.8c-2.2,12.6-12.6,20.9-25.2,20.2
				c-11.8-0.7-21.7-10.6-22.4-22.3c-0.7-12.7,7.6-23.1,20.1-25.2c1-0.2,2.2-0.4,2.9-1.1c4.5-4.3,8.9-8.8,13.6-13.4
				c-6.6-6.6-13.1-13-19.5-19.5c-7.7-7.7-7-15.4,1.9-21.6c10.5-7.2,22.2-10.9,35.1-10.7c2.2,0,4.4,0,6.1,0
				c-1.1-3.9-2.7-7.8-3.1-11.9c-0.6-5.2,1.9-9.6,5.6-13.3c5.4-5.4,10.9-10.8,16.3-16.2c-2.9-2.8-5.6-5.4-8.7-8.5
				c-3.6,3.6-7.3,7.6-11.2,11.4c-6.3,6.2-13,6.2-19.2-0.1c-27.6-27.5-55.1-55-82.7-82.6c-1.9-1.9-3.1-4.3-4.7-6.5c0-1.9,0-3.8,0-5.7
				c2-2.8,3.6-5.9,5.9-8.2C49.4,60.6,68,42.1,86.7,23.6c6.6-6.6,13.2-6.6,19.8,0c27.4,27.3,54.8,54.7,82.2,82
				c6.8,6.7,6.7,13.2-0.1,20c-3.7,3.7-7.5,7.2-11.3,11c3.2,3,5.9,5.5,8.9,8.4c4.8-4.8,9.6-9.7,14.6-14.6c8.7-8.7,17.3-9.4,28-2
				c3-3.2,6.1-6.6,9.4-9.8c8.7-8.7,19.1-8.6,27.9,0.1c7.8,7.8,15.6,15.5,23.4,23.3c8.3,8.4,8.3,18.9,0,27.3
				c-3.2,3.3-6.7,6.3-10.1,9.6c4.4,5.5,6.7,11.2,4.6,17.5c-1.1,3.2-3,6.4-5.3,9c-5.1,5.6-10.6,10.7-16,16c2.9,2.9,5.6,5.5,8.6,8.5
				c3.7-3.7,7.4-7.5,11.2-11.2c6.5-6.5,13.1-6.5,19.5-0.1c27.6,27.5,55.2,55,82.7,82.6C386.6,303.1,387.8,305.5,389.4,307.7z
				 M376,311c-6.8-6.9-13.8-13.8-20.4-20.4c-19.4,19.3-39,38.9-58.5,58.3c6.7,6.7,13.6,13.7,20.4,20.5
				C337.1,349.8,356.8,330.2,376,311z M346,280.9c-8.1-8.1-16.4-16.4-24.5-24.5c-19.4,19.4-39.1,39-58.6,58.5
				c8.2,8.2,16.6,16.6,24.5,24.5C307,319.8,326.8,300.1,346,280.9z M312.2,246.9c-6.6-6.7-13.5-13.6-20.1-20.2
				c-19.6,19.6-39.3,39.2-58.7,58.6c6.7,6.6,13.6,13.5,20.2,20.1C273.1,285.9,292.8,266.3,312.2,246.9z M281.5,159.8
				c2.5-2.7,2.6-5.9,0-8.6c-8.4-8.5-16.8-17-25.4-25.3c-2.5-2.4-5.8-2.4-8.3,0c-3.7,3.5-7.3,7.1-10.8,10.5
				c11.3,11.5,22.4,22.6,33.9,34.1C274.5,166.8,278.1,163.4,281.5,159.8z M272.9,191.9c-1-1.7-1.6-3.5-2.8-4.6
				c-16.6-16.7-33.3-33.3-50-49.9c-3.1-3.1-6.3-3-9.4,0c-22.3,22.2-44.6,44.4-66.8,66.7c-3.2,3.2-3.3,6.4-0.1,9.6
				c16.5,16.6,33.1,33.1,49.7,49.7c3.2,3.2,6.5,3.2,9.7,0c22.3-22.2,44.6-44.5,66.8-66.7C271.3,195.3,271.9,193.6,272.9,191.9z
				 M261.1,238.7c-2.4-2.8-4.9-5.6-7.1-8c-5.6,5.6-11.1,11.1-16.6,16.6c2.4,2.4,5.1,5.1,7.5,7.5C250.5,249.3,256,243.8,261.1,238.7z
				 M176.7,154c-2.6-2.8-5.2-5.6-7.6-8.1c-5.6,5.6-11.1,11.1-16.4,16.4c2.3,2.6,4.8,5.3,7.5,8.1C166,164.7,171.4,159.3,176.7,154z
				 M164.4,309.6c14.9-17.5,12.5-46.7-5.1-63.4c-19.4-18.4-47.7-16-62-3.5C119.6,264.9,142,287.2,164.4,309.6z M181,115.6
				c-6.9-6.9-13.8-13.8-20.5-20.4c-19.5,19.5-39.3,39.2-58.7,58.6c6.7,6.7,13.6,13.6,20.4,20.4C141.7,154.8,161.4,135.1,181,115.6z
				 M150.8,85.8c-8.1-8.1-16.5-16.4-24.7-24.6c-19.5,19.4-39.1,39.1-58.7,58.7c8.2,8.2,16.6,16.5,24.6,24.5
				C111.6,124.8,131.4,105.2,150.8,85.8z M117.9,296.5c2-1.8,5-4.6,7.7-7c-2.7-2.8-5.2-5.5-7.2-7.7c-3.1,2.9-6,5.7-7.9,7.5
				C113,291.7,115.6,294.3,117.9,296.5z M108.3,310.8c0.2-6.7-5-12-11.7-12.1c-6.7,0-12,5.2-12,11.9c0,6.5,5.1,11.8,11.6,11.9
				C102.9,322.6,108.2,317.5,108.3,310.8z M116.7,52.2C110,45.4,103,38.4,96.5,31.8C77,51.2,57.4,70.8,37.9,90.3
				c6.6,6.6,13.4,13.4,20.3,20.3C77.8,91,97.5,71.4,116.7,52.2z"/>
		</g>
	</g>
</g>
</svg>
