<?xml version="1.0" encoding="utf-8"?>
<!-- Generator: Adobe Illustrator 25.4.1, SVG Export Plug-In . SVG Version: 6.00 Build 0)  -->
<svg version="1.1" id="Capa_1" xmlns="http://www.w3.org/2000/svg" xmlns:xlink="http://www.w3.org/1999/xlink" x="0px" y="0px"
	 viewBox="0 0 400 351" style="enable-background:new 0 0 400 351;" xml:space="preserve">
<style type="text/css">
	.st0{fill:#54E548;}
</style>
<g>
	<g id="XMLID_00000124855112811628082000000014414080883811621514_">
		<path class="st0" d="M296.9,119.3c13.6-0.2,26.8-0.9,36.4-12.2c8.4-9.9,9-22.3,9.1-34.8C311,70.6,294.9,85.7,296.9,119.3z
			 M230.9,34.6c0.4,15.4,0.9,30.3,12.7,41.1c10.5,9.6,23.6,10.3,37.2,10.2c-0.1-15.4-0.8-30.2-12.5-40.9
			C257.9,35.2,244.7,34.4,230.9,34.6z M198.9,195.6c1.1,0.6,3.2,0.4,4.4-0.3c15.2-8.6,31-15.8,47.4-21.6c2.3-0.8,4.6-1.7,7-2.5
			c-0.1-0.2-0.1-0.4-0.2-0.5c-37.9,0-75.8,0-113.7,0c-0.1,0.2-0.1,0.3-0.1,0.5c0.4,0.2,0.8,0.4,1.2,0.5
			C163.7,177.9,181.7,185.8,198.9,195.6z M125.6,118.9c32.3,1.9,46.6-14.4,45.1-46.7C140.4,71.1,123.3,84.5,125.6,118.9z M59.9,34.6
			c-1.2,36.5,13.9,51.9,49.7,51.1c-0.2-15.1-0.8-30-12.5-40.8C86.6,35.2,73.3,34.3,59.9,34.6z M52.8,18.5c12.1-1.1,24.2-0.5,36,3.2
			c19.8,6.3,30.7,20.6,34.9,41c0.2,1.2,0.5,2.3,0.7,3.5c0.2,1,0.3,2,0.5,3.4c0.8-0.5,1.5-0.7,2-1.1c15.9-12.5,34.1-14.3,53.1-12.2
			c3.6,0.4,6,3.1,6.5,6.8c1.7,14,0.7,27.8-4.3,41.1c-6.7,17.7-20.1,26.6-37.5,29.9c-6.2,1.2-12.6,1.5-19.3,2.2c0,5.5,0,11.3,0,17.3
			c51.5,0,102.9,0,154.6,0c0-17,0-34,0-50.9c-6.6-0.7-13.2-0.8-19.5-2.1c-27.3-5.4-42.3-22.6-44.7-51.2c-0.6-7.3-0.3-14.7-0.1-22
			c0.2-5.4,2.7-8.3,8-8.8c14.6-1.5,29.1-0.6,42.8,5.5c16.9,7.5,25.3,21.6,28.8,39.5c0.4,1.9,0.7,3.9,0.9,5
			c6.5-3.2,12.9-7.1,19.7-9.6c11.2-4.1,23-4.5,34.8-3c4.2,0.5,6.8,3.3,7.3,7.9c1.2,13.3,0.6,26.5-4.1,39.2
			c-6.6,18.2-20.1,27.5-38,30.9c-6.2,1.2-12.6,1.5-19.3,2.2c0,5.4,0,11.3,0,17.5c9.8,0,19.4,0,29.1,0c20.2,0,40.3,0,60.5,0.2
			c4.1,0,8.6,0.1,11,4.7c0,1.8,0,3.7,0,5.5c-2.4,5.3-6.7,6.2-12,6.1c-54.3-1.8-106.7,7.2-156.4,30.3c-3.1,1.5-6.2,3.1-9.3,4.6
			c-0.7,0.3-1.3,0.7-2.3,1.3c0.9,0.8,1.6,1.4,2.4,2c6.6,5.1,13.3,10.1,19.9,15.4c1.9,1.5,3.3,1.7,5.4,0.7
			c39.8-18.7,81.7-27.6,125.4-27.3c1.4,0,2.8,0,4.2,0.1c4.8,0.5,7.8,4,7.6,8.7c-0.2,4.6-3.5,7.5-8.4,7.8c-15.5,1-31.1,1.3-46.5,3.3
			c-23.9,3-46.9,9.7-69.1,19.5c-0.9,0.4-1.8,0.8-2.9,1.3c5.6,6.4,11,12.7,16.6,18.8c0.6,0.6,2.4,0.5,3.4,0.1
			c18.4-6.8,37.3-11.9,56.7-13.9c13.7-1.4,27.5-1.8,41.2-2.3c5.9-0.2,9.1,3.1,9.1,8.2c-0.1,5.2-3.7,8.3-9.6,8.2
			c-29.6-0.7-58.4,3.8-86.5,13.5c-0.9,0.3-1.9,0.7-3.1,1.2c1.6,2.3,3,4.5,4.4,6.6c10.7,16.4,19.4,33.9,26.4,52.3
			c2.1,5.6,0.7,10-3.7,12c-4.6,2-8.9-0.2-11.1-5.9c-13.7-35.9-33.9-67.3-61.8-93.2c-30-27.9-65-46.3-103.5-58.2
			c-38.5-11.9-77.9-16.3-117.9-15.1c-4.9,0.1-8.4-1.5-10.5-6.2c0-1.6,0-3.2,0-4.7c2.4-4.3,6-5.7,10.8-5.7c29.3,0.2,58.7,0.1,88,0.1
			c1.5,0,3,0,4.8,0c0-17.1,0-34,0-51.1c-5.7-0.6-11.4-0.9-17-1.7c-26.4-3.5-43.3-20.6-46.7-47.9c-1-8.3-0.8-16.8-0.7-25.2
			C44.3,21.9,47,19.1,52.8,18.5z"/>
		<path class="st0" d="M61.4,199.1c31.3,3.1,61.5,10.7,90.5,23.4c50.3,22.1,89.7,57,116.7,106.3c0.5,0.9,1,1.8,1.4,2.8
			c1.8,4.2,0.5,8.8-3.2,10.9c-3.7,2.1-8.1,0.9-10.7-3c-0.5-0.8-0.9-1.6-1.4-2.4c-27.8-51-69.3-85-122.1-104.9
			c-29.5-11.2-60.1-17-91.6-18.1c-4,0-7.9,0-11.9,0c-5.4,0-9-3-9.1-7.8c-0.2-4.8,3.1-8.6,8.5-8.5C39.5,197.9,50.5,198,61.4,199.1z"
			/>
		<path class="st0" d="M41.7,240.5c41.5,1.1,81,10.6,117.7,31.2c25.2,14.1,46.6,32.9,64,56.5c1.1,1.5,2.2,3,2.7,4.7
			c1.2,3.7-0.4,7.7-3.6,9.5c-3.3,2-7.4,1.3-10-1.9c-3.4-4.1-6.5-8.5-9.9-12.5c-27.9-32.5-63.2-52-103.5-62.7
			c-22.8-6.1-46.1-9-69.7-8.4c-5.5,0.1-9.1-2.8-9.4-7.6c-0.3-5,2.9-8.4,8.7-8.7C33,240.3,37.4,240.5,41.7,240.5z"/>
	</g>
</g>
</svg>
