<?xml version="1.0" encoding="utf-8"?>
<!-- Generator: Adobe Illustrator 25.4.1, SVG Export Plug-In . SVG Version: 6.00 Build 0)  -->
<svg version="1.1" id="Capa_1" xmlns="http://www.w3.org/2000/svg" xmlns:xlink="http://www.w3.org/1999/xlink" x="0px" y="0px"
	 viewBox="0 0 400 400" style="enable-background:new 0 0 400 400;" xml:space="preserve">
<style type="text/css">
	.st0{fill:#54E548;}
</style>
<g>
	<g id="XMLID_00000067212056672275244010000009920865908628660906_">
		<g>
			<path class="st0" d="M386.4,291.5v2.9c-1.7,3.2-4.3,4.4-8,4.3c-12.1-0.2-24.2-0.1-36.3-0.1c-0.7,0-1.5,0-2.2,0
				c-3.4-0.3-5.8-2.8-5.7-5.9c0.1-3,2.4-5.4,5.7-5.5c13.5-0.1,27.1-0.2,40.6,0.2C382.5,287.5,384.5,290.1,386.4,291.5z"/>
			<path class="st0" d="M386.4,221.8v2.9c-1.7,3.2-4.3,4.4-8,4.3c-10.5-0.2-21,0-31.5-0.1c-4.2,0-6.9-2.4-6.8-5.9
				c0.1-3,2.4-5.4,5.7-5.5c11.6-0.1,23.2-0.2,34.8,0.2C382.6,217.8,384.5,220.4,386.4,221.8z"/>
			<path class="st0" d="M386.3,198.6v2.9c-1.8,3.4-4.6,4.3-8.4,4.3c-46-0.1-91.9-0.1-137.9-0.1h-4.6v23.4h4.1c21,0,42.1,0,63.1,0
				c6.2,0,8,1.8,8,8c0.2,2.8,0.1,5.6,0.2,8.4c0.6,11.6-2,12-5.7,12.4c-4.4,0.5-5.8-2.7-5.8-12.2v-5.1h-4.2c-21,0-42.1,0-63.1,0
				c-6.4,0-8.2-1.7-8.2-8.1c0-10.3,0-20.6,0-30.8c0-5.2,2-7.3,7.2-7.3c49.3,0,98.7,0,148-0.1C382.5,194.3,384.7,195.7,386.3,198.6z"
				/>
			<path class="st0" d="M350.6,252.4c4,0,6.6,2.4,6.6,5.7c0,3.3-2.6,5.6-6.6,5.7c-4.6,0.1-9.2,0-13.8,0c-4.5,0-8.9,0.1-13.4,0
				c-4-0.1-6.6-2.4-6.6-5.7c0-3.4,2.6-5.7,6.6-5.7C332.5,252.4,341.6,252.4,350.6,252.4z"/>
			<path class="st0" d="M344.9,327.9c4,0.1,6.6,2.4,6.5,5.8c-0.1,3.2-2.6,5.5-6.3,5.6c-7.4,0.1-14.8,0.1-22.1,0
				c-3.7-0.1-6.2-2.6-6.1-5.8s2.6-5.5,6.3-5.6c3.7-0.1,7.5,0,11.2,0C337.9,327.9,341.4,327.8,344.9,327.9z"/>
			<path class="st0" d="M310.7,270c0,30.6,0,61.2,0,91.8c0,4.3-2.2,6.5-6.5,6.5c-7.7,0.1-15.5,0-23.2,0H99.2c-7.4,0-8.9-1.5-8.9-8.9
				V237.8c0-7.1,1.6-8.7,8.8-8.7c20.8,0,41.6,0,62.4,0h4.1v-23.4h-4.4c-45.7,0-91.5,0-137.2,0c-1.2,0-2.4,0.1-3.6-0.1
				c-3.2-0.3-5.5-2.7-5.5-5.6c0-3,2.2-5.4,5.5-5.7c1-0.1,1.9,0,2.9,0c48.5,0,97,0,145.6,0c6.9,0,8.5,1.6,8.5,8.6
				c0,9.6,0,19.1,0,28.7c0,7.5-1.5,9-8.8,9c-20.6,0-41.1,0-61.7,0h-4.8V263c5.9,3.4,11.2,6.5,16.6,9.6c9,5.1,17.8,3.7,26.1-1.5
				c6.8-4.3,14-7,22.1-7.1c7.1-0.1,13.6,2,19.3,6.1c10.2,7.4,18.8,7.4,28.9,0.1c11.6-8.4,26.9-8.4,40.2,0.1c4.6,2.9,9.4,5,14.8,5.3
				c5.6,0.3,10.5-1.1,14.8-4.6c5.7-4.6,12.3-7,19.7-7C308.5,264,310.7,266.1,310.7,270z M299.3,356.7v-81.1
				c-3.1,1.9-5.7,3.2-7.9,4.9c-6.3,4.7-13.2,6.9-21,6.6s-14.8-2.9-21.3-7.2c-9.1-5.9-19.6-6-27.2-0.5c-14.2,10.3-27.8,10.1-42.5,0.1
				c-3.3-2.2-7.7-3.4-11.8-3.9c-6.1-0.8-11.6,1.7-16.6,5.1c-11.5,7.7-29.2,9.7-42.2-1.2c-1.8-1.5-4.1-2.3-6.5-3.6v80.8H299.3z"/>
			<path class="st0" d="M299.1,217.3c0.1,3.3-2.5,5.8-6.4,5.9c-9.2,0.1-18.4,0.1-27.6,0c-3.9,0-6.5-2.5-6.4-5.9
				c0.1-3.2,2.6-5.4,6.4-5.5c4.6-0.1,9.2,0,13.8,0c4.7-0.1,9.3-0.1,13.8,0C296.5,211.9,299,214.1,299.1,217.3z"/>
			<path class="st0" d="M235.3,92.8c17,17.8,22.1,43.1,12.8,64c-9.5,21.6-31.9,34.1-55.5,30.8c-22.4-3.1-40.9-22-43.8-45.2
				c-2.4-19.5,3.5-36.3,17.2-50.2c3.5-3.6,8.1-3,9.9,1c1.2,2.8,0.1,5.1-1.9,7.2c-10.4,10.4-14.9,23.1-14.3,37.8
				c0.8,20,17.5,37.3,37.5,38.6c21.1,1.4,40-13.1,43.3-33.2c2.5-15.8-1.3-29.8-12.2-41.6c-3.9-4.3-8.5-7.9-12.4-12.2
				c-5.4-5.8-10.4-11.9-15.5-17.7c-4,4.8-8,9.9-12.4,14.7c-3,3.3-6.3,3.4-8.9,0.9c-2.6-2.7-2.2-5.9,1.2-9.1
				c8.7-7.9,13.5-17.8,14.5-29.5c0.3-3.8,2.3-5.9,5.5-5.9c3.3-0.1,5.7,2,5.9,5.6c0.5,11.8,5.9,21.2,14.1,29.3
				C225.3,83,230.5,87.8,235.3,92.8z"/>
			<path class="st0" d="M229.4,134.2c0.2,5.3-3,8.7-7.1,7.4c-2.7-0.9-4.3-2.9-4.2-5.7c0.3-9.1-3.8-16-10.2-21.9
				c-1.8-1.6-3.6-3.3-5.2-5.1c-2-2.3-2-4.9,0-7.2c2.1-2.3,4.9-2.9,7.2-1C220.5,109.4,229.6,119.2,229.4,134.2z"/>
			<path class="st0" d="M135.9,211.8c3.9,0,6.5,2.5,6.4,5.9c-0.1,3.2-2.6,5.4-6.4,5.5c-4.6,0.1-9.2,0-13.8,0s-9.2,0.1-13.8,0
				c-3.9-0.1-6.5-2.5-6.4-5.9c0.1-3.2,2.6-5.5,6.4-5.5C117.6,211.7,126.8,211.7,135.9,211.8z"/>
			<path class="st0" d="M77.9,252.4c3.9,0,6.5,2.5,6.4,5.9c-0.1,3.2-2.6,5.5-6.4,5.5c-4.7,0.1-9.4,0-14.2,0c-4.5,0-8.9,0.1-13.4,0
				c-3.9-0.1-6.5-2.5-6.4-5.9c0.1-3.2,2.6-5.5,6.4-5.5C59.5,252.4,68.7,252.4,77.9,252.4z"/>
			<path class="st0" d="M84.3,333.6c0,3.2-2.5,5.6-6.2,5.7c-3.8,0.1-7.5,0-11.2,0c-3.6,0-7.3,0.1-10.9,0c-3.7-0.1-6.2-2.4-6.3-5.6
				c0-3.2,2.5-5.7,6.2-5.7c7.4-0.1,14.7-0.1,22.1,0C81.8,328,84.2,330.3,84.3,333.6z"/>
			<path class="st0" d="M66.9,292.9c0,3.4-2.6,5.7-6.9,5.7c-12.7,0-25.4,0-38.1,0c-4.3,0-7-2.2-7-5.7c0-3.4,2.6-5.7,6.9-5.7
				c6.4,0,12.8,0,19.2,0c6.3,0,12.6,0,18.9,0C64.2,287.3,66.8,289.5,66.9,292.9z"/>
			<path class="st0" d="M61.1,223.1c0.1,3.4-2.6,5.9-6.8,5.9c-10.9,0.1-21.8,0.1-32.7,0c-4.2,0-6.9-2.4-6.8-5.9
				c0.1-3.3,2.7-5.5,6.8-5.5c5.6-0.1,11.1,0,16.7,0c5.3,0,10.6,0,16,0C58.4,217.6,60.9,219.8,61.1,223.1z"/>
		</g>
	</g>
</g>
</svg>
